<svg xmlns="http://www.w3.org/2000/svg" viewBox="0 0 24 24">
  <path d="M11.6000394,0 C11.9375391,0 12.2219108,0.115621785 12.4531543,0.346865354 L20.8531571,8.74686817 C21.0844007,8.97811174 21.2000225,9.26248339 21.2000225,9.59998313 C21.2000225,9.94372661 21.085957,10.2296639 20.8578259,10.457795 C20.6296948,10.685926 20.3437575,10.7999916 20.0000141,10.7999916 C19.6625143,10.7999916 19.3781427,10.6843698 19.1468991,10.4531262 L12.8000197,4.09688117 L12.8000197,22.7999916 C12.8000197,23.1312476 12.6828323,23.414063 12.4484575,23.6484378 C12.2140826,23.8828126 11.9312672,24 11.6000112,24 C11.2687553,24 10.9859399,23.8828126 10.751565,23.6484378 C10.5171902,23.414063 10.4000028,23.1312476 10.4000028,22.7999916 L10.4000028,4.09688117 L4.0531234,10.4531262 C3.82187983,10.6843698 3.53750817,10.7999916 3.20000844,10.7999916 C2.85626496,10.7999916 2.57032768,10.685926 2.34219661,10.457795 C2.11406554,10.2296639 2,9.94372661 2,9.59998313 C2,9.26248339 2.11562178,8.97811174 2.34686535,8.74686817 L10.7468682,0.346865354 C10.9781117,0.115621785 11.2624834,0 11.5999831,0 L11.6000394,0 Z"/>
</svg>
