<svg fill="#000000" xmlns="http://www.w3.org/2000/svg"  viewBox="0 0 50 50"><path d="M 40.990234 -0.009765625 A 1.0001 1.0001 0 0 0 40.292969 1.7070312 L 40.96875 2.3828125 L 40.382812 2.96875 L 39.707031 2.2929688 A 1.0001 1.0001 0 0 0 38.990234 1.9902344 A 1.0001 1.0001 0 0 0 38.292969 3.7070312 L 38.96875 4.3828125 L 38.136719 5.2148438 C 37.572926 5.7786361 37.404589 6.5168085 37.416016 7.2421875 L 30.535156 14.121094 L 29.707031 13.292969 A 1.0001 1.0001 0 0 0 28.990234 12.990234 A 1.0001 1.0001 0 0 0 28.292969 14.707031 L 29.121094 15.535156 L 19.123047 25.533203 C 17.297493 24.556254 15.210354 24 13 24 C 5.8324839 24 0 29.832484 0 37 C 0 44.167516 5.8324839 50 13 50 C 20.167516 50 26 44.167516 26 37 C 26 34.788696 25.443481 32.702494 24.466797 30.876953 L 42.757812 12.585938 C 43.48261 12.597697 44.221488 12.431629 44.787109 11.867188 L 45.621094 11.035156 L 46.292969 11.707031 A 1.0001 1.0001 0 1 0 47.707031 10.292969 L 47.035156 9.6210938 L 47.621094 9.0351562 L 48.292969 9.7070312 A 1.0001 1.0001 0 1 0 49.707031 8.2929688 L 49.035156 7.6210938 L 49.164062 7.4902344 L 49.166016 7.4882812 C 50.271079 6.3826171 50.273462 4.5585372 49.166016 3.4550781 L 49.164062 3.453125 L 46.548828 0.83789062 C 45.996875 0.28286463 45.263912 0.005928525 44.53125 0.005859375 C 43.799444 0.005790295 43.066504 0.28340558 42.513672 0.8359375 L 42.382812 0.96875 L 41.707031 0.29296875 A 1.0001 1.0001 0 0 0 40.990234 -0.009765625 z M 44.53125 1.9960938 C 44.747534 1.9963927 44.962813 2.0810197 45.130859 2.25 L 47.751953 4.8710938 C 48.089914 5.2071872 48.092306 5.7343362 47.751953 6.0742188 L 43.373047 10.451172 C 43.159495 10.663249 42.874188 10.723613 42.564453 10.644531 L 42.011719 10.503906 L 13.701172 38.814453 L 11.1875 36.298828 L 39.5 7.9882812 L 39.357422 7.4355469 C 39.277364 7.1229645 39.337008 6.8426797 39.550781 6.6289062 L 43.927734 2.25 C 44.097676 2.0798237 44.314966 1.9957948 44.53125 1.9960938 z M 44.414062 3.1796875 C 44.272062 3.1796875 44.129984 3.23525 44.021484 3.34375 L 40.316406 7.046875 C 40.099406 7.263875 40.099406 7.6150313 40.316406 7.8320312 C 40.424406 7.9410312 40.565984 7.9941406 40.708984 7.9941406 C 40.851984 7.9941406 40.992563 7.9410313 41.101562 7.8320312 L 44.806641 4.1289062 C 45.023641 3.9119063 45.023641 3.56075 44.806641 3.34375 C 44.698141 3.23525 44.556063 3.1796875 44.414062 3.1796875 z M 46.265625 5.0332031 C 46.123625 5.0332031 45.981547 5.0868125 45.873047 5.1953125 L 42.169922 8.8984375 C 41.952922 9.1154375 41.952922 9.4665937 42.169922 9.6835938 C 42.277922 9.7925937 42.417547 9.8476562 42.560547 9.8476562 C 42.703547 9.8476562 42.844125 9.7925937 42.953125 9.6835938 L 46.658203 5.9804688 C 46.875203 5.7634687 46.875203 5.4123125 46.658203 5.1953125 C 46.549703 5.0868125 46.407625 5.0332031 46.265625 5.0332031 z M 13 26 C 14.658649 26 16.225444 26.368415 17.632812 27.023438 L 9.7714844 34.884766 L 9.0449219 34.158203 C 8.8359219 33.947203 8.4980625 33.947203 8.2890625 34.158203 L 7.1582031 35.289062 C 6.9472031 35.498063 6.9472031 35.835875 7.1582031 36.046875 L 13.955078 42.845703 C 14.162078 43.052703 14.501938 43.052703 14.710938 42.845703 L 15.84375 41.710938 C 16.05275 41.501938 16.05275 41.166078 15.84375 40.955078 L 15.115234 40.228516 L 22.974609 32.369141 C 23.629719 33.77628 24 35.341046 24 37 C 24 43.086484 19.086484 48 13 48 C 10.886545 48 8.9220353 47.397416 7.2480469 46.369141 L 9.5546875 44.832031 A 1.0001 1.0001 0 0 0 9.7070312 43.292969 L 6.7070312 40.292969 A 1.0001 1.0001 0 0 0 5.984375 40 A 1.0001 1.0001 0 0 0 5.1679688 40.445312 L 3.6308594 42.751953 C 2.6025844 41.077965 2 39.113455 2 37 C 2 30.913516 6.9135161 26 13 26 z M 6.15625 42.570312 L 7.4296875 43.84375 L 5.5585938 45.09375 C 5.331952 44.885331 5.1146692 44.668048 4.90625 44.441406 L 6.15625 42.570312 z"/></svg>