<svg fill="#000000" xmlns="http://www.w3.org/2000/svg"  viewBox="0 0 50 50"><path d="M 16.939453 4.9921875 A 1.0001 1.0001 0 0 0 16.328125 6.7421875 L 17.375 7.6894531 C 19.156225 9.3022171 21.879447 9.5076011 23.816406 8.0234375 C 25.698768 6.5811932 28.445071 6.8121569 30.042969 8.7714844 C 31.50475 10.56324 31.252922 13.252879 29.578125 14.921875 L 24.214844 20.205078 L 3.4335938 40.675781 L 4.5566406 41.814453 L 3.4296875 40.679688 L 0.060546875 44 L 2.9101562 44 L 4.8378906 42.099609 L 9.3535156 37.652344 C 9.5943025 38.215371 9.9345644 38.71671 10.326172 39.123047 C 11.320058 40.274117 13.121114 40.246935 14.185547 39.171875 C 15.239095 38.106304 15.262333 36.348828 14.154297 35.337891 C 13.770511 34.915949 13.311247 34.622859 12.785156 34.396484 C 12.755175 34.383581 12.721658 34.377708 12.691406 34.365234 L 14.373047 32.708984 C 14.612642 33.249631 14.947222 33.729845 15.326172 34.123047 C 16.320058 35.274117 18.121114 35.246935 19.185547 34.171875 C 20.239095 33.106304 20.262333 31.348828 19.154297 30.337891 C 18.770511 29.915949 18.311247 29.622859 17.785156 29.396484 C 17.773352 29.391404 17.759894 29.389781 17.748047 29.384766 L 19.394531 27.761719 C 19.632445 28.281014 19.959422 28.742503 20.326172 29.123047 C 21.320058 30.274117 23.121114 30.246935 24.185547 29.171875 C 25.239095 28.106304 25.262333 26.348828 24.154297 25.337891 C 23.774721 24.920577 23.31965 24.631597 22.800781 24.40625 L 24.912109 22.326172 L 28 25.414062 L 35 18.414062 L 37.566406 20.980469 L 17.746094 40.351562 L 14.009766 44 L 16.869141 44 L 19.140625 41.779297 L 18.785156 41.414062 L 19.144531 41.78125 L 40.611328 20.800781 C 41.216851 20.372845 41.904772 20.030643 42.542969 19.871094 L 42.601562 19.855469 L 42.658203 19.833984 C 44.214793 19.235296 45.434515 18.015574 46.033203 16.458984 L 46.035156 16.455078 L 46.037109 16.451172 C 46.322877 15.689126 46.583287 15.099665 46.998047 14.511719 L 49.394531 11.980469 L 44 6.5859375 L 40.935547 9.6503906 C 40.610153 9.8035112 40.212359 9.9654649 39.957031 10.029297 L 39.941406 10.033203 L 39.925781 10.039062 C 38.181084 10.537548 36.934499 11.909654 36.443359 13.505859 L 36.429688 13.554688 L 36.419922 13.603516 C 36.358022 13.913015 36.218549 14.197088 36.052734 14.533203 L 28 22.585938 L 26.335938 20.921875 L 30.988281 16.339844 L 30.990234 16.337891 C 33.35739 13.978934 33.736016 10.136057 31.591797 7.5078125 C 29.325695 4.72914 25.321201 4.3517911 22.601562 6.4355469 C 21.458522 7.3113833 19.813525 7.1982674 18.71875 6.2070312 L 17.671875 5.2578125 A 1.0001 1.0001 0 0 0 16.939453 4.9921875 z M 44 9.4140625 L 46.605469 12.019531 L 45.425781 13.261719 L 45.386719 13.318359 C 44.81513 14.118582 44.474888 14.917206 44.166016 15.740234 C 43.765773 16.780865 42.988446 17.560626 41.949219 17.962891 C 41.037438 18.207629 40.175837 18.644212 39.417969 19.185547 L 39.355469 19.230469 L 38.996094 19.582031 L 36.414062 17 L 37.722656 15.691406 L 37.794922 15.546875 C 37.994922 15.146875 38.250688 14.646952 38.380859 13.996094 L 38.355469 14.09375 C 38.664329 13.089955 39.419307 12.262453 40.474609 11.960938 C 40.978965 11.831498 41.496914 11.619707 41.947266 11.394531 L 42.091797 11.322266 L 44 9.4140625 z M 21.166016 26.035156 C 21.393248 26.054396 21.695749 26.105136 21.996094 26.234375 C 22.34944 26.386419 22.659232 26.624472 22.710938 26.685547 L 22.761719 26.746094 L 22.820312 26.796875 C 23.064008 27.007892 23.096791 27.428704 22.763672 27.765625 C 22.431007 28.101612 22.04505 28.07091 21.833984 27.822266 L 21.808594 27.792969 L 21.783203 27.767578 C 21.548153 27.529289 21.131747 26.580146 21.060547 26.134766 C 21.074027 26.120136 21.077277 26.111986 21.091797 26.097656 C 21.119747 26.070086 21.138536 26.058186 21.166016 26.035156 z M 16.166016 31.035156 C 16.393248 31.054396 16.695749 31.105136 16.996094 31.234375 C 17.34944 31.386419 17.659232 31.624472 17.710938 31.685547 L 17.761719 31.746094 L 17.820312 31.796875 C 18.064008 32.007892 18.096791 32.428704 17.763672 32.765625 C 17.431007 33.101612 17.04505 33.07091 16.833984 32.822266 L 16.808594 32.792969 L 16.783203 32.767578 C 16.548153 32.529289 16.131747 31.580146 16.060547 31.134766 C 16.074027 31.120136 16.077277 31.111986 16.091797 31.097656 C 16.119747 31.070086 16.138536 31.058186 16.166016 31.035156 z M 11.166016 36.035156 C 11.393248 36.054396 11.695749 36.105136 11.996094 36.234375 C 12.34944 36.386419 12.659232 36.624472 12.710938 36.685547 L 12.761719 36.746094 L 12.820312 36.796875 C 13.064008 37.007892 13.096791 37.428704 12.763672 37.765625 C 12.431007 38.101612 12.04505 38.07091 11.833984 37.822266 L 11.808594 37.792969 L 11.783203 37.767578 C 11.548153 37.529289 11.131747 36.580146 11.060547 36.134766 C 11.074027 36.120136 11.077277 36.111986 11.091797 36.097656 C 11.119747 36.070086 11.138526 36.058186 11.166016 36.035156 z"/></svg>