<svg fill="#000000" xmlns="http://www.w3.org/2000/svg"  viewBox="0 0 50 50"><path d="M 48.15625 6 C 47.132813 6.121094 46.652344 6.785156 46.1875 7.40625 C 45.902344 7.789063 45.566406 8.414063 44.96875 9.28125 C 44.371094 10.148438 43.578125 11.203125 42.65625 12.21875 C 40.8125 14.246094 38.445313 16 36 16 L 29 16 L 29 13 C 29.359375 13.003906 29.695313 12.816406 29.878906 12.503906 C 30.058594 12.191406 30.058594 11.808594 29.878906 11.496094 C 29.695313 11.183594 29.359375 10.996094 29 11 L 27 11 C 26.96875 11 26.9375 11 26.90625 11 C 26.875 11 26.84375 11 26.8125 11 C 26.261719 11.050781 25.855469 11.542969 25.90625 12.09375 C 25.957031 12.644531 26.449219 13.050781 27 13 L 27 16 L 24 16 L 24 13 C 24.359375 13.003906 24.695313 12.816406 24.878906 12.503906 C 25.058594 12.191406 25.058594 11.808594 24.878906 11.496094 C 24.695313 11.183594 24.359375 10.996094 24 11 L 22 11 C 21.96875 11 21.9375 11 21.90625 11 C 21.875 11 21.84375 11 21.8125 11 C 21.261719 11.050781 20.855469 11.542969 20.90625 12.09375 C 20.957031 12.644531 21.449219 13.050781 22 13 L 22 16 L 19 16 L 19 13 C 19.359375 13.003906 19.695313 12.816406 19.878906 12.503906 C 20.058594 12.191406 20.058594 11.808594 19.878906 11.496094 C 19.695313 11.183594 19.359375 10.996094 19 11 L 17 11 C 16.96875 11 16.9375 11 16.90625 11 C 16.875 11 16.84375 11 16.8125 11 C 16.261719 11.050781 15.855469 11.542969 15.90625 12.09375 C 15.957031 12.644531 16.449219 13.050781 17 13 L 17 16 L 4.9375 16 C 4.703125 14.867188 3.699219 14 2.5 14 C 1.132813 14 0 15.132813 0 16.5 L 0 20.5 C 0 21.867188 1.132813 23 2.5 23 C 3.699219 23 4.703125 22.132813 4.9375 21 L 8.8125 21 C 7.710938 22.757813 7.03125 25.023438 7 27.8125 C 6.992188 27.875 6.992188 27.9375 7 28 C 7 28.03125 7 28.0625 7 28.09375 C 7.019531 31.921875 8.207031 35.191406 10.59375 37.46875 C 13 39.765625 16.546875 41 21 41 L 27.3125 41.03125 L 27.34375 41.03125 C 33.773438 41.03125 39 35.8125 39 29 C 39 26.898438 38.316406 24.847656 37.0625 23.125 C 39.011719 23.507813 40.84375 24.867188 42.375 26.5 C 44.183594 28.429688 45.492188 30.574219 46.1875 31.5625 C 46.523438 32.042969 46.832031 32.421875 47.25 32.6875 C 47.667969 32.953125 48.332031 33.105469 48.875 32.84375 C 49.417969 32.582031 49.671875 32.109375 49.8125 31.65625 C 49.953125 31.203125 50 30.699219 50 30.125 L 50 8.375 C 50 7.742188 49.941406 7.226563 49.65625 6.75 C 49.371094 6.273438 48.667969 5.941406 48.15625 6 Z M 48 8.40625 L 48 30.125 C 48 30.34375 47.988281 30.4375 47.96875 30.59375 C 47.90625 30.519531 47.882813 30.539063 47.8125 30.4375 C 47.242188 29.628906 45.832031 27.277344 43.84375 25.15625 C 41.855469 23.035156 39.210938 21 36 21 L 18 21 C 14.738281 21 11.097656 24.148438 11 28.8125 C 10.992188 28.875 10.992188 28.9375 11 29 C 11 29.03125 11 29.0625 11 29.09375 C 11.019531 31.054688 11.628906 32.628906 12.59375 33.78125 C 13.574219 34.953125 14.875 35.691406 16.15625 36.15625 C 17.007813 36.464844 17.863281 36.65625 18.65625 36.78125 C 19.089844 36.90625 19.527344 37 20 37 C 20.0625 36.996094 20.125 36.984375 20.1875 36.96875 C 21.042969 37.027344 21.738281 37 22 37 L 26 37 C 26.238281 37 26.457031 36.980469 26.6875 36.96875 C 26.789063 36.996094 26.894531 37.007813 27 37 C 27.445313 37 27.867188 36.925781 28.28125 36.8125 C 30.386719 36.445313 31.953125 35.5625 33 34.375 C 34.394531 32.789063 34.84375 30.773438 34.84375 29 C 34.84375 27.175781 34.0625 25.234375 32.65625 23.6875 C 32.4375 23.445313 32.1875 23.21875 31.9375 23 L 34.28125 23 C 36.054688 24.617188 37 26.773438 37 29 C 37 34.804688 32.707031 39.03125 27.34375 39.03125 L 21 39 C 16.910156 39 13.957031 37.902344 12 36.03125 C 10.070313 34.191406 9.03125 31.542969 9 28.15625 C 9.003906 28.105469 9.003906 28.050781 9 28 C 9 27.96875 9 27.9375 9 27.90625 C 9.023438 24.03125 10.332031 21.664063 12.1875 20.15625 C 14.058594 18.636719 16.589844 18 19 18 L 36 18 C 39.363281 18 42.109375 15.78125 44.125 13.5625 C 45.132813 12.453125 45.964844 11.320313 46.59375 10.40625 C 47.222656 9.492188 47.71875 8.71875 47.8125 8.59375 L 47.8125 8.5625 C 47.898438 8.453125 47.902344 8.488281 48 8.40625 Z M 2.5 16 C 2.785156 16 3 16.214844 3 16.5 L 3 16.6875 C 2.941406 16.882813 2.941406 17.085938 3 17.28125 L 3 19.6875 C 2.941406 19.882813 2.941406 20.085938 3 20.28125 L 3 20.5 C 3 20.785156 2.785156 21 2.5 21 C 2.214844 21 2 20.785156 2 20.5 L 2 16.5 C 2 16.214844 2.214844 16 2.5 16 Z M 5 18 L 11.75 18 C 11.472656 18.183594 11.199219 18.378906 10.9375 18.59375 C 10.78125 18.722656 10.621094 18.859375 10.46875 19 L 5 19 Z M 19 23 L 22 23 L 22 27 L 20 27 C 19.65625 27 19.324219 27.027344 19 27.09375 Z M 24 23 L 26.625 23 C 26.753906 23 26.875 23.023438 27 23.03125 L 27 27 L 24 27 Z M 17 23.1875 L 17 28 C 17 28.011719 17 28.019531 17 28.03125 C 15.800781 28.945313 15 30.382813 15 32 C 15 32.515625 15.101563 33 15.25 33.46875 C 14.847656 33.191406 14.46875 32.871094 14.15625 32.5 C 13.492188 31.707031 13.03125 30.671875 13 29.15625 C 13.003906 29.105469 13.003906 29.050781 13 29 C 13 28.96875 13 28.9375 13 28.90625 C 13.042969 25.859375 15.203125 23.785156 17 23.1875 Z M 29 23.46875 C 29.867188 23.832031 30.589844 24.375 31.1875 25.03125 C 32.265625 26.21875 32.84375 27.761719 32.84375 29 C 32.84375 30.171875 32.59375 31.367188 31.96875 32.375 C 31.976563 32.25 32 32.128906 32 32 C 32 29.964844 30.757813 28.214844 29 27.4375 Z M 20 29 L 27 29 C 28.667969 29 30 30.332031 30 32 C 30 33.304688 29.183594 34.394531 28.03125 34.8125 C 27.429688 34.921875 26.769531 35 26 35 L 22 35 C 21.5 35 20.214844 35.023438 18.78125 34.78125 C 17.714844 34.324219 17 33.242188 17 32 C 17 30.332031 18.332031 29 20 29 Z"/></svg>