<svg fill="#000000" xmlns="http://www.w3.org/2000/svg"  viewBox="0 0 50 50"><path d="M 47.09375 0 C 46.917969 0.0390625 46.753906 0.125 46.625 0.25 L 42.8125 3.625 L 41.6875 2.5 C 41.386719 2.199219 41 2 40.5 2 C 39.699219 2 39.09375 2.792969 39.09375 3.59375 C 39.09375 4.394531 39.792969 5.09375 40.59375 5.09375 C 40.695313 5.09375 40.898438 5 41 5 L 41.125 5.125 L 40.15625 5.96875 L 38.6875 4.5 C 38.386719 4.199219 38 4 37.5 4 C 36.699219 4 36.09375 4.792969 36.09375 5.59375 C 36.09375 6.394531 36.792969 7.09375 37.59375 7.09375 C 37.695313 7.09375 37.898438 7 38 7 L 38.46875 7.46875 L 32.875 12.4375 C 31.300781 11.203125 29.109375 10 26.5 10 C 24.910156 10 23.082031 10.484375 21.3125 11.8125 C 21.300781 11.8125 21.292969 11.8125 21.28125 11.8125 C 20.441406 12.464844 18.929688 13.480469 17.21875 14.6875 C 16.980469 14.855469 16.828125 15.113281 16.800781 15.402344 C 16.769531 15.691406 16.867188 15.976563 17.0625 16.1875 C 17.925781 17.132813 17.972656 17.75 17.6875 18.625 C 17.402344 19.5 16.605469 20.582031 15.5 21.6875 C 14.0625 23.125 12.699219 24 11.6875 24 C 11.101563 24 10.574219 23.753906 9.8125 23.09375 C 9.472656 22.753906 9.304688 22.4375 9.28125 22.34375 C 9.195313 22.007813 8.9375 21.742188 8.609375 21.640625 C 8.277344 21.539063 7.917969 21.617188 7.65625 21.84375 C 6.257813 23.042969 4.832031 24.261719 3.59375 25.5 C 0.667969 28.425781 -0.449219 31.828125 0.03125 35.15625 C 0.460938 38.117188 2.089844 40.957031 4.5625 43.5625 L 0 49.6875 L 0.3125 50 L 6.4375 45.4375 C 9.511719 48.292969 12.917969 50 16.40625 50 C 19.289063 50 22.054688 48.757813 24.5 46.3125 C 25.71875 45.09375 26.960938 43.753906 28.1875 42.21875 C 28.367188 41.984375 28.433594 41.679688 28.367188 41.386719 C 28.300781 41.097656 28.109375 40.851563 27.84375 40.71875 C 27.5625 40.578125 27.246094 40.339844 26.90625 40 C 25.894531 38.988281 25.820313 38.320313 26.09375 37.4375 C 26.363281 36.558594 27.207031 35.46875 28.3125 34.3125 C 29.75 32.875 31.082031 32 32.09375 32 C 32.644531 32 33.1875 32.175781 33.84375 32.75 C 34.058594 32.933594 34.339844 33.015625 34.621094 32.980469 C 34.898438 32.945313 35.152344 32.792969 35.3125 32.5625 C 36.519531 30.851563 37.535156 29.339844 38.1875 28.5 C 38.199219 28.5 38.207031 28.5 38.21875 28.5 C 39.96875 26.09375 40.261719 23.597656 39.8125 21.5 C 39.425781 19.703125 38.546875 18.207031 37.625 17.03125 L 44.40625 9.40625 L 45 10 C 45 10.101563 44.90625 10.304688 44.90625 10.40625 C 44.90625 11.207031 45.605469 11.90625 46.40625 11.90625 C 47.207031 11.90625 47.90625 11.207031 47.90625 10.40625 C 48.007813 10.007813 47.800781 9.613281 47.5 9.3125 L 45.90625 7.71875 L 46.75 6.75 L 47 7 C 47 7.101563 46.90625 7.304688 46.90625 7.40625 C 46.90625 8.207031 47.605469 8.90625 48.40625 8.90625 C 49.207031 8.90625 50 8.300781 50 7.5 C 50 7 49.800781 6.613281 49.5 6.3125 L 48.25 5.0625 L 49.75 3.375 C 50.105469 2.980469 50.09375 2.378906 49.71875 2 L 48 0.28125 C 47.785156 0.0703125 47.488281 -0.0351563 47.1875 0 C 47.15625 0 47.125 0 47.09375 0 Z M 47.25 2.375 L 47.625 2.75 L 27.75 25.15625 L 24.84375 22.25 Z M 26.5 12 C 28.34375 12 30.023438 12.835938 31.34375 13.8125 L 22.75 21.4375 C 22.535156 21.617188 22.410156 21.878906 22.398438 22.15625 C 22.386719 22.4375 22.492188 22.707031 22.6875 22.90625 L 27.09375 27.3125 C 27.292969 27.507813 27.5625 27.613281 27.84375 27.601563 C 28.121094 27.589844 28.382813 27.464844 28.5625 27.25 L 36.28125 18.5625 C 36.976563 19.523438 37.605469 20.6875 37.875 21.9375 C 38.222656 23.554688 38.046875 25.304688 36.625 27.28125 C 36.617188 27.292969 36.601563 27.300781 36.59375 27.3125 C 35.988281 28.09375 35.117188 29.363281 34.21875 30.65625 C 33.527344 30.265625 32.8125 30 32.09375 30 C 30.105469 30 28.46875 31.34375 26.90625 32.90625 C 26.894531 32.90625 26.886719 32.90625 26.875 32.90625 C 25.691406 34.144531 24.640625 35.378906 24.1875 36.84375 C 23.734375 38.308594 24.113281 40.019531 25.5 41.40625 C 25.640625 41.546875 25.792969 41.625 25.9375 41.75 C 24.996094 42.871094 24.042969 43.957031 23.09375 44.90625 C 20.9375 47.0625 18.722656 48 16.40625 48 C 13.882813 48 11.28125 46.839844 8.75 44.75 C 8.792969 44.722656 8.835938 44.691406 8.875 44.65625 L 17.46875 37.0625 C 17.675781 36.878906 17.800781 36.613281 17.804688 36.335938 C 17.8125 36.054688 17.699219 35.789063 17.5 35.59375 L 14.40625 32.5 C 14.21875 32.300781 13.960938 32.191406 13.6875 32.1875 C 13.410156 32.199219 13.148438 32.320313 12.96875 32.53125 L 5.34375 41.03125 C 5.28125 41.097656 5.230469 41.171875 5.1875 41.25 C 3.410156 39.136719 2.304688 36.957031 2 34.84375 C 1.605469 32.121094 2.425781 29.480469 5 26.90625 C 5.921875 25.984375 7.023438 25.011719 8.125 24.0625 C 8.238281 24.191406 8.285156 24.378906 8.40625 24.5 C 8.414063 24.519531 8.425781 24.542969 8.4375 24.5625 C 9.433594 25.449219 10.492188 26 11.6875 26 C 13.675781 26 15.34375 24.65625 16.90625 23.09375 C 18.101563 21.898438 19.128906 20.675781 19.59375 19.25 C 19.953125 18.144531 19.699219 16.945313 19.0625 15.8125 C 20.402344 14.878906 21.699219 13.996094 22.5 13.375 L 22.5 13.40625 C 23.929688 12.335938 25.289063 12 26.5 12 Z M 13.75 34.65625 L 15.34375 36.25 L 7.53125 43.15625 C 7.429688 43.242188 7.34375 43.347656 7.28125 43.46875 C 7.152344 43.34375 7.03125 43.222656 6.90625 43.09375 C 6.894531 43.082031 6.886719 43.074219 6.875 43.0625 C 6.726563 42.921875 6.609375 42.765625 6.46875 42.625 C 6.609375 42.570313 6.738281 42.484375 6.84375 42.375 Z"/></svg>