<svg fill="#000000" xmlns="http://www.w3.org/2000/svg"  viewBox="0 0 50 50"><path d="M 44.53125 0.09375 C 44.085938 0.0820313 43.546875 0.234375 43.1875 0.59375 L 12 31.8125 C 11.953125 31.851563 11.914063 31.890625 11.875 31.9375 L 11.15625 32.625 L 0.96875 42.84375 C 0.117188 43.695313 -0.125 44.894531 0.21875 45.8125 C 0.5625 46.730469 1.222656 47.410156 1.90625 48.09375 C 2.820313 49.007813 3.558594 49.660156 4.5 49.90625 C 5.441406 50.152344 6.460938 49.726563 7.15625 49.03125 L 17.375 38.84375 L 17.375 38.8125 L 18.125 38.0625 C 18.171875 38.015625 18.214844 37.960938 18.25 37.90625 L 24.84375 31.34375 C 24.898438 31.308594 24.953125 31.265625 25 31.21875 C 25.5 31.535156 26.019531 31.828125 26.5 32.0625 L 25.28125 33.28125 C 24.882813 33.679688 24.882813 34.320313 25.28125 34.71875 C 25.679688 35.117188 26.320313 35.117188 26.71875 34.71875 L 48.71875 12.71875 C 49.042969 12.417969 49.128906 11.941406 48.933594 11.546875 C 48.742188 11.148438 48.308594 10.929688 47.875 11 C 47.652344 11.023438 47.441406 11.125 47.28125 11.28125 L 46.0625 12.5 C 45.824219 12.015625 45.507813 11.503906 45.1875 11 C 45.246094 10.953125 45.296875 10.902344 45.34375 10.84375 L 49.40625 6.8125 C 49.761719 6.457031 49.945313 5.929688 49.9375 5.46875 C 49.929688 5.007813 49.785156 4.59375 49.59375 4.21875 C 49.214844 3.46875 48.605469 2.792969 47.90625 2.09375 C 47.195313 1.382813 46.5 0.773438 45.75 0.40625 C 45.375 0.222656 44.976563 0.105469 44.53125 0.09375 Z M 44.53125 2.125 C 44.585938 2.132813 44.703125 2.132813 44.875 2.21875 C 45.289063 2.421875 45.890625 2.886719 46.5 3.5 C 47.121094 4.121094 47.609375 4.722656 47.8125 5.125 C 47.894531 5.289063 47.898438 5.390625 47.90625 5.4375 L 44.03125 9.34375 C 43.804688 9.050781 43.570313 8.695313 43.4375 8.5625 C 42.652344 7.777344 41.347656 7.777344 40.5625 8.5625 C 39.777344 9.347656 39.777344 10.652344 40.5625 11.4375 C 40.695313 11.570313 41.050781 11.804688 41.34375 12.03125 L 38.03125 15.34375 C 37.804688 15.050781 37.570313 14.695313 37.4375 14.5625 C 36.652344 13.777344 35.347656 13.777344 34.5625 14.5625 C 33.777344 15.347656 33.777344 16.652344 34.5625 17.4375 C 34.695313 17.570313 35.050781 17.804688 35.34375 18.03125 L 32.03125 21.34375 C 31.804688 21.050781 31.570313 20.695313 31.4375 20.5625 C 30.652344 19.777344 29.347656 19.777344 28.5625 20.5625 C 27.777344 21.347656 27.777344 22.652344 28.5625 23.4375 C 28.695313 23.570313 29.050781 23.804688 29.34375 24.03125 L 26.03125 27.34375 C 25.804688 27.050781 25.570313 26.695313 25.4375 26.5625 C 24.652344 25.777344 23.347656 25.777344 22.5625 26.5625 C 21.777344 27.347656 21.777344 28.652344 22.5625 29.4375 C 22.695313 29.570313 23.050781 29.804688 23.34375 30.03125 L 17.375 36 L 14 32.65625 Z M 42.96875 13.1875 C 43.480469 13.511719 44.007813 13.820313 44.5 14.0625 L 40.0625 18.5 C 39.824219 18.015625 39.507813 17.503906 39.1875 17 C 39.246094 16.953125 39.296875 16.902344 39.34375 16.84375 L 42.84375 13.34375 C 42.890625 13.296875 42.933594 13.242188 42.96875 13.1875 Z M 36.96875 19.1875 C 37.480469 19.511719 38.007813 19.820313 38.5 20.0625 L 34.0625 24.5 C 33.824219 24.015625 33.507813 23.503906 33.1875 23 C 33.246094 22.953125 33.296875 22.902344 33.34375 22.84375 L 36.84375 19.34375 C 36.890625 19.296875 36.933594 19.242188 36.96875 19.1875 Z M 30.96875 25.1875 C 31.480469 25.511719 32.007813 25.820313 32.5 26.0625 L 28.0625 30.5 C 27.824219 30.015625 27.507813 29.503906 27.1875 29 C 27.246094 28.953125 27.296875 28.902344 27.34375 28.84375 L 30.8125 25.375 C 30.871094 25.320313 30.925781 25.257813 30.96875 25.1875 Z M 12.5625 34.0625 L 15.9375 37.4375 L 5.75 47.625 C 5.332031 48.042969 5.269531 48.039063 5 47.96875 C 4.730469 47.898438 4.136719 47.511719 3.3125 46.6875 C 2.675781 46.050781 2.222656 45.46875 2.09375 45.125 C 1.964844 44.78125 1.90625 44.71875 2.375 44.25 Z"/></svg>