<svg fill="#000000" xmlns="http://www.w3.org/2000/svg"  viewBox="0 0 50 50"><path d="M 15.5625 0.03125 C 15.34375 0.0507813 15.125 0.101563 14.90625 0.15625 C 14.039063 0.375 13.203125 0.875 12.5 1.65625 C 10.925781 3.40625 10.050781 5.875 9.0625 7.84375 C 8.570313 8.828125 8.042969 9.679688 7.53125 10.21875 C 7.019531 10.757813 6.589844 11 6 11 C 5.988281 11 5.980469 11 5.96875 11 C 5.949219 11 5.925781 11 5.90625 11 C 5.90625 11 5.410156 11.058594 4.78125 11 C 4.152344 10.941406 3.429688 10.753906 3.0625 10.46875 C 2.636719 10.144531 2.03125 10.214844 1.6875 10.625 L 0.28125 12.34375 C 0.0507813 12.625 -0.0078125 13.007813 0.125 13.34375 C 0.125 13.34375 0.242188 13.605469 0.4375 13.875 C 0.632813 14.144531 0.957031 14.492188 1.40625 14.8125 C 2.246094 15.410156 3.640625 15.871094 5.625 15.9375 C 5.660156 15.9375 5.683594 15.96875 5.71875 15.96875 C 5.789063 15.988281 5.863281 15.996094 5.9375 16 C 5.960938 16 5.976563 16 6 16 C 6.035156 16 6.058594 16 6.09375 16 C 6.191406 15.992188 6.285156 15.972656 6.375 15.9375 C 6.410156 15.9375 6.433594 15.910156 6.46875 15.90625 C 8.324219 15.789063 9.875 15.125 11 14.15625 C 12.226563 13.101563 13.050781 11.804688 13.65625 10.6875 C 14.019531 10.019531 14.152344 9.769531 14.375 9.34375 C 15.484375 12.261719 25.21875 37.863281 25.28125 38.03125 C 25.28125 38.03125 25.3125 38.121094 25.3125 38.125 C 25.351563 38.269531 26.175781 41.300781 28.28125 44.28125 C 30.441406 47.335938 34.101563 50.367188 39.40625 49.75 C 42.234375 49.421875 43.558594 48.769531 45.6875 46.90625 C 46.746094 45.980469 47.613281 45.128906 48.1875 43.90625 C 48.761719 42.683594 49.003906 41.195313 49 39 C 49 37.035156 48.003906 34.761719 47.125 32.53125 C 46.246094 30.300781 45.507813 28.082031 45.59375 27.15625 C 45.726563 25.800781 45.949219 24.960938 46.1875 24.53125 C 46.425781 24.101563 46.601563 24.011719 47.09375 23.875 C 47.804688 23.679688 48.386719 23.445313 48.84375 23.125 C 49.300781 22.804688 49.707031 22.324219 49.75 21.6875 C 49.792969 21.050781 49.414063 20.511719 49 20.1875 C 48.585938 19.863281 48.085938 19.652344 47.5 19.5 C 45.578125 19 35.566406 15.882813 34.15625 15.40625 C 33.679688 15.25 33.195313 15.167969 32.71875 15.1875 C 32.242188 15.207031 31.695313 15.320313 31.28125 15.84375 C 30.867188 16.367188 30.902344 17.113281 31.15625 17.65625 C 31.410156 18.199219 31.828125 18.714844 32.46875 19.3125 C 33.484375 20.265625 33.667969 21.179688 33.71875 22.53125 C 33.769531 23.882813 33.609375 25.578125 34.125 27.46875 C 34.664063 29.410156 35.628906 32.253906 38.34375 36.46875 C 38.859375 37.269531 39.074219 37.992188 39.0625 38.4375 C 39.050781 38.882813 38.953125 39.089844 38.5 39.34375 C 38.144531 39.542969 38.027344 39.464844 37.625 39.15625 C 37.238281 38.859375 36.800781 38.285156 36.5 37.75 L 36.46875 37.6875 C 36.449219 37.648438 33.453125 30.988281 31.28125 26.1875 C 31.570313 25.703125 31.753906 25.113281 31.4375 24.59375 C 31.203125 24.207031 30.71875 23.996094 30.25 23.90625 C 29.476563 22.195313 29.34375 21.925781 28.53125 20.125 C 28.800781 19.648438 28.960938 19.089844 28.65625 18.59375 C 28.425781 18.21875 27.988281 18.03125 27.53125 17.9375 C 26.722656 16.152344 26.542969 15.738281 25.8125 14.125 C 26.082031 13.648438 26.242188 13.089844 25.9375 12.59375 C 25.710938 12.21875 25.265625 12.03125 24.8125 11.9375 C 23.503906 9.039063 21.6875 5.023438 21.34375 4.25 C 20.5 2.359375 19.136719 0.929688 17.5 0.3125 C 16.886719 0.0820313 16.222656 -0.0273438 15.5625 0.03125 Z M 15.75 1.96875 C 16.097656 1.953125 16.449219 2.050781 16.8125 2.1875 C 17.785156 2.554688 18.828125 3.554688 19.5 5.0625 C 19.816406 5.773438 21.523438 9.523438 22.65625 12.03125 C 22.464844 12.089844 22.273438 12.164063 22.09375 12.25 C 20.769531 12.886719 20.632813 13.949219 21.125 14.96875 C 21.609375 15.988281 22.546875 16.578125 23.875 15.9375 C 24.023438 15.867188 24.167969 15.785156 24.3125 15.6875 C 24.777344 16.710938 24.882813 16.941406 25.375 18.03125 C 25.183594 18.089844 24.992188 18.132813 24.8125 18.21875 C 23.488281 18.855469 23.382813 19.949219 23.875 20.96875 C 24.359375 21.988281 25.265625 22.578125 26.59375 21.9375 C 26.742188 21.867188 26.886719 21.785156 27.03125 21.6875 C 27.542969 22.8125 27.597656 22.972656 28.09375 24.0625 C 27.925781 24.117188 27.75 24.144531 27.59375 24.21875 C 26.269531 24.855469 26.132813 25.949219 26.625 26.96875 C 27.109375 27.988281 28.015625 28.578125 29.34375 27.9375 C 29.480469 27.871094 29.617188 27.773438 29.75 27.6875 C 31.753906 32.101563 34.6875 38.59375 34.6875 38.59375 C 34.695313 38.613281 34.707031 38.636719 34.71875 38.65625 C 35.101563 39.363281 35.636719 40.15625 36.40625 40.75 C 37.175781 41.34375 38.398438 41.691406 39.46875 41.09375 C 40.441406 40.550781 41.035156 39.503906 41.0625 38.46875 C 41.089844 37.433594 40.6875 36.429688 40.03125 35.40625 C 37.417969 31.351563 36.539063 28.769531 36.03125 26.9375 C 35.625 25.449219 35.777344 24.003906 35.71875 22.46875 C 35.660156 20.933594 35.308594 19.21875 33.84375 17.84375 C 33.554688 17.574219 33.519531 17.464844 33.375 17.28125 C 33.433594 17.296875 33.46875 17.292969 33.53125 17.3125 C 35.152344 17.863281 44.789063 20.863281 47 21.4375 C 47.203125 21.492188 47.246094 21.535156 47.375 21.59375 C 47.171875 21.699219 46.96875 21.828125 46.5625 21.9375 C 45.71875 22.167969 44.945313 22.710938 44.46875 23.5625 C 43.992188 24.414063 43.769531 25.488281 43.625 26.96875 C 43.445313 28.875 44.398438 31.039063 45.28125 33.28125 C 46.164063 35.523438 47 37.808594 47 39 C 47 41.050781 46.769531 42.226563 46.375 43.0625 C 45.980469 43.898438 45.390625 44.519531 44.375 45.40625 C 42.335938 47.191406 41.84375 47.472656 39.1875 47.78125 C 34.71875 48.300781 31.859375 45.847656 29.9375 43.125 C 28.015625 40.402344 27.21875 37.53125 27.21875 37.53125 C 27.210938 37.5 27.199219 37.46875 27.1875 37.4375 C 27.1875 37.4375 16.878906 10.304688 16.0625 8.15625 C 15.839844 7.574219 15.730469 7.121094 15.125 6.75 C 14.824219 6.566406 14.300781 6.527344 13.96875 6.65625 C 13.636719 6.785156 13.457031 6.980469 13.3125 7.15625 C 12.730469 7.855469 12.425781 8.730469 11.875 9.75 C 11.324219 10.769531 10.625 11.851563 9.6875 12.65625 C 8.976563 13.269531 8.066406 13.625 7 13.8125 L 7 12.75 C 7.761719 12.523438 8.472656 12.152344 9 11.59375 C 9.757813 10.796875 10.316406 9.804688 10.84375 8.75 C 11.902344 6.640625 12.835938 4.296875 14 3 C 14.480469 2.464844 14.949219 2.148438 15.40625 2.03125 C 15.519531 2.003906 15.632813 1.972656 15.75 1.96875 Z M 2.75 12.5 C 3.394531 12.773438 4.066406 12.917969 4.625 12.96875 C 4.835938 12.988281 4.820313 12.964844 5 12.96875 L 5 13.875 C 3.816406 13.738281 2.972656 13.480469 2.5625 13.1875 C 2.441406 13.101563 2.421875 13.042969 2.34375 12.96875 Z M 39.84375 26.125 C 39.5 26.167969 39.1875 26.316406 38.90625 26.5625 C 38.152344 27.222656 38.066406 28.34375 38.71875 29.09375 C 39.375 29.847656 40.53125 29.9375 41.28125 29.28125 C 42.035156 28.628906 42.09375 27.46875 41.4375 26.71875 C 41.023438 26.25 40.417969 26.054688 39.84375 26.125 Z M 42.375 31.9375 C 42.027344 31.980469 41.6875 32.128906 41.40625 32.375 C 40.652344 33.03125 40.597656 34.1875 41.25 34.9375 C 41.902344 35.683594 43.023438 35.753906 43.78125 35.09375 C 44.53125 34.441406 44.625 33.285156 43.96875 32.53125 C 43.554688 32.0625 42.953125 31.867188 42.375 31.9375 Z"/></svg>