<svg fill="#000000" xmlns="http://www.w3.org/2000/svg"  viewBox="0 0 50 50"><path d="M 17.3125 3.25 C 16.863281 3.203125 16.339844 3.472656 16.09375 3.8125 C 15.601563 4.488281 15.714844 5.144531 15.9375 5.90625 C 16.007813 6.144531 16.382813 7.996094 16.34375 9.9375 C 16.304688 11.878906 15.867188 13.945313 14.65625 15.15625 L 14.53125 15.28125 C 11.796875 18.015625 3.472656 26.339844 2.90625 26.90625 C 2.800781 26.992188 2.71875 27.097656 2.65625 27.21875 C 2.652344 27.222656 2.660156 27.246094 2.65625 27.25 C -0.945313 31.164063 -0.859375 37.265625 2.9375 41.0625 C 6.777344 44.902344 12.964844 44.941406 16.875 41.21875 C 16.878906 41.214844 16.902344 41.222656 16.90625 41.21875 C 16.964844 41.171875 17.015625 41.121094 17.0625 41.0625 C 17.074219 41.0625 17.082031 41.0625 17.09375 41.0625 L 17.21875 40.9375 L 29 29.1875 L 32.84375 33.03125 L 25.4375 40.4375 C 25.140625 40.324219 24.84375 40.25 24.53125 40.25 C 23.890625 40.25 23.265625 40.484375 22.78125 40.96875 C 21.8125 41.9375 21.8125 43.53125 22.78125 44.5 L 25.59375 47.34375 C 26.5625 48.3125 28.15625 48.3125 29.125 47.34375 C 29.835938 46.632813 30.015625 45.585938 29.6875 44.6875 L 47.4375 26.96875 C 49.089844 25.320313 50 23.113281 50 20.78125 C 50 18.449219 49.085938 16.210938 47.4375 14.5625 C 45.734375 12.859375 43.496094 12.03125 41.25 12.03125 C 39.003906 12.03125 36.769531 12.859375 35.0625 14.5625 L 20.96875 28.6875 L 15.3125 23.03125 C 16.660156 21.683594 18.125 20.21875 19.09375 19.25 C 21.453125 16.886719 26.445313 17.65625 28.0625 17.9375 C 28.507813 18.015625 28.898438 18.050781 29.28125 17.96875 C 29.664063 17.886719 30.101563 17.613281 30.3125 17.1875 C 30.523438 16.761719 30.484375 16.332031 30.375 16.03125 C 30.265625 15.730469 30.070313 15.511719 29.875 15.3125 C 29.453125 14.890625 18.917969 4.355469 18.34375 3.78125 C 18.09375 3.53125 17.761719 3.296875 17.3125 3.25 Z M 17.9375 6.1875 C 19.75 8 26.101563 14.382813 27.625 15.90625 C 25.589844 15.542969 20.78125 14.71875 17.65625 17.84375 C 14.652344 20.847656 7.398438 28.132813 5.96875 29.5625 C 5.914063 29.597656 5.859375 29.640625 5.8125 29.6875 C 5.804688 29.695313 5.757813 29.742188 5.75 29.75 C 5.726563 29.769531 5.707031 29.789063 5.6875 29.8125 C 5.640625 29.859375 5.597656 29.914063 5.5625 29.96875 C 5.539063 30 5.519531 30.03125 5.5 30.0625 C 3.441406 32.414063 3.507813 36.007813 5.75 38.25 C 7.980469 40.480469 11.554688 40.5625 13.90625 38.53125 C 13.941406 38.503906 13.972656 38.472656 14 38.4375 C 14.011719 38.425781 14.050781 38.449219 14.0625 38.4375 C 14.121094 38.390625 14.171875 38.339844 14.21875 38.28125 C 14.230469 38.269531 14.238281 38.261719 14.25 38.25 L 14.3125 38.1875 C 14.359375 38.148438 14.398438 38.109375 14.4375 38.0625 C 14.4375 38.050781 14.4375 38.042969 14.4375 38.03125 L 36.46875 16 C 39.113281 13.359375 43.390625 13.359375 46.03125 16 C 47.3125 17.28125 48 18.96875 48 20.78125 C 48 22.59375 47.3125 24.25 46.03125 25.53125 L 28.4375 43.09375 L 27 41.65625 L 44.59375 24.125 C 45.484375 23.238281 45.96875 22.039063 45.96875 20.78125 C 45.96875 19.523438 45.484375 18.292969 44.59375 17.40625 C 43.675781 16.484375 42.464844 16.03125 41.25 16.03125 C 40.035156 16.03125 38.824219 16.488281 37.90625 17.40625 L 15.84375 39.46875 C 15.785156 39.515625 15.734375 39.566406 15.6875 39.625 L 15.65625 39.65625 C 15.632813 39.675781 15.613281 39.695313 15.59375 39.71875 C 12.457031 42.789063 7.457031 42.769531 4.34375 39.65625 C 1.210938 36.523438 1.210938 31.476563 4.34375 28.34375 C 4.390625 28.296875 4.433594 28.242188 4.46875 28.1875 C 4.492188 28.15625 4.511719 28.125 4.53125 28.09375 C 5.378906 27.246094 13.472656 19.183594 16.0625 16.59375 C 17.863281 14.792969 18.300781 12.167969 18.34375 9.96875 C 18.378906 8.15625 18.125 7.03125 17.9375 6.1875 Z M 41.25 18.03125 C 41.949219 18.03125 42.652344 18.308594 43.1875 18.84375 C 43.707031 19.363281 43.96875 20.042969 43.96875 20.78125 C 43.96875 21.519531 43.707031 22.167969 43.1875 22.6875 L 34.25 31.59375 L 30.40625 27.75 L 39.3125 18.84375 C 39.847656 18.308594 40.550781 18.03125 41.25 18.03125 Z M 13.875 24.46875 L 19.53125 30.125 L 15.4375 34.25 L 9.75 28.59375 C 10.960938 27.386719 12.375 25.96875 13.875 24.46875 Z M 8.34375 30 L 14 35.65625 L 13.03125 36.65625 C 12.972656 36.703125 12.921875 36.753906 12.875 36.8125 L 12.84375 36.84375 C 12.789063 36.878906 12.734375 36.921875 12.6875 36.96875 C 11.109375 38.394531 8.710938 38.367188 7.1875 36.84375 C 5.617188 35.273438 5.617188 32.757813 7.1875 31.1875 C 7.234375 31.140625 7.277344 31.085938 7.3125 31.03125 C 7.359375 30.984375 7.402344 30.929688 7.4375 30.875 C 7.730469 30.589844 8.164063 30.179688 8.34375 30 Z M 24.53125 42.21875 C 24.5625 42.21875 24.59375 42.242188 24.625 42.25 C 24.746094 42.453125 24.933594 42.609375 25.15625 42.6875 L 25.1875 42.6875 C 25.207031 42.699219 25.230469 42.710938 25.25 42.71875 L 27.40625 44.90625 C 27.484375 45.144531 27.652344 45.347656 27.875 45.46875 C 27.90625 45.617188 27.84375 45.78125 27.71875 45.90625 C 27.515625 46.109375 27.203125 46.109375 27 45.90625 L 24.1875 43.09375 C 23.984375 42.890625 23.984375 42.578125 24.1875 42.375 C 24.289063 42.273438 24.410156 42.21875 24.53125 42.21875 Z"/></svg>