<svg fill="#000000" xmlns="http://www.w3.org/2000/svg"  viewBox="0 0 50 50"><path d="M 18 0 C 17.484375 0 16.984375 0.101563 16.5625 0.46875 C 16.140625 0.835938 15.972656 1.460938 16.03125 1.9375 C 16.148438 2.890625 16.730469 3.59375 17.5625 4.34375 C 18.546875 5.226563 20.960938 7.441406 23.09375 10.0625 C 25.226563 12.683594 27 15.742188 27 18 L 27 20 L 25.84375 20 C 25.652344 17.835938 25.003906 16.027344 23.75 14.875 C 22.292969 13.53125 20.292969 13 18.125 13 C 15.691406 13 13.121094 13.890625 11.1875 15.875 C 9.253906 17.859375 8 20.902344 8 25 L 8 36 C 8 37.222656 8.058594 40.65625 9.875 43.875 C 11.691406 47.09375 15.398438 50 22 50 C 26.683594 50 30.246094 48.6875 32.59375 46.34375 C 34.941406 44 36 40.710938 36 37 L 36 26 L 41.0625 26 C 41.296875 27.132813 42.300781 28 43.5 28 C 44.867188 28 46 26.867188 46 25.5 L 46 21.5 C 46 20.132813 44.867188 19 43.5 19 C 42.300781 19 41.296875 19.867188 41.0625 21 L 36 21 L 36 18 C 36 15.367188 37.976563 12.152344 40.21875 9.53125 C 42.460938 6.910156 44.882813 4.875 45.5 4.375 C 46.550781 3.523438 47.125 2.578125 46.96875 1.59375 C 46.8125 0.609375 45.875 0 45 0 Z M 18.25 2 L 44.9375 2 C 44.929688 2.023438 44.929688 2.261719 44.25 2.8125 C 43.585938 3.351563 41.0625 5.445313 38.6875 8.21875 C 36.3125 10.992188 34 14.441406 34 18 L 34 37 C 34 40.332031 33.058594 43.039063 31.15625 44.9375 C 29.253906 46.835938 26.316406 48 22 48 C 15.960938 48 13.148438 45.574219 11.625 42.875 C 10.101563 40.175781 10 37.121094 10 36 L 10 25 C 10 21.308594 11.09375 18.851563 12.625 17.28125 C 14.15625 15.710938 16.183594 15 18.125 15 C 19.957031 15 21.390625 15.46875 22.375 16.375 C 23.332031 17.257813 23.964844 18.621094 24 20.8125 C 23.996094 20.855469 23.996094 20.894531 24 20.9375 C 24 20.960938 24 20.976563 24 21 L 24 24 C 24 24.03125 24 24.0625 24 24.09375 L 24 35 C 24 36.144531 23.878906 37.191406 23.46875 37.84375 C 23.058594 38.496094 22.410156 39 20.53125 39 C 18.699219 39 18.007813 38.433594 17.5625 37.6875 C 17.117188 36.941406 17 35.863281 17 35 L 17 25 C 17 24.332031 17.375 23.5625 17.96875 22.96875 C 18.5625 22.375 19.332031 22 20 22 L 21 22 L 21 23 C 20.105469 23 19.292969 23.289063 18.75 23.875 C 18.207031 24.460938 18 25.238281 18 26 L 18 35 C 18 35.535156 17.980469 36.15625 18.34375 36.8125 C 18.707031 37.46875 19.566406 37.9375 20.46875 37.9375 C 21.433594 37.9375 22.316406 37.496094 22.6875 36.8125 C 23.058594 36.128906 23 35.503906 23 35 L 23 24.15625 C 23.003906 24.105469 23.003906 24.050781 23 24 L 23 22 L 23.03125 22 L 23 21 C 23 20.988281 23 20.980469 23 20.96875 C 23 20.949219 23 20.925781 23 20.90625 C 23 20.875 23 20.84375 23 20.8125 C 23 20.789063 22.96875 20.773438 22.96875 20.75 C 22.96875 20.738281 22.96875 20.730469 22.96875 20.71875 C 22.902344 19.449219 22.539063 18.304688 21.75 17.4375 C 20.90625 16.511719 19.640625 16 18.15625 16 C 17.292969 16 15.636719 16.113281 14.28125 17.40625 C 12.925781 18.699219 12 21.007813 12 25 L 12 36 C 12 37.464844 12.4375 39.5625 13.71875 41.4375 C 15 43.3125 17.246094 44.90625 20.46875 44.90625 C 23.246094 44.90625 25.453125 44.019531 26.90625 42.40625 C 28.359375 40.792969 29 38.546875 29 36 L 29 24.1875 C 29.027344 24.054688 29.027344 23.914063 29 23.78125 L 29 18 C 29 14.792969 26.875 11.546875 24.625 8.78125 C 22.375 6.015625 19.914063 3.746094 18.90625 2.84375 C 18.445313 2.429688 18.359375 2.207031 18.25 2 Z M 18.15625 18 C 19.222656 18 19.847656 18.308594 20.28125 18.78125 C 20.515625 19.039063 20.53125 19.585938 20.65625 20 L 20 20 C 18.667969 20 17.4375 20.625 16.53125 21.53125 C 15.625 22.4375 15 23.667969 15 25 L 15 35 C 15 35.988281 15.074219 37.425781 15.84375 38.71875 C 16.613281 40.011719 18.195313 41 20.53125 41 C 22.828125 41 24.402344 40.160156 25.1875 38.90625 C 25.972656 37.652344 26 36.230469 26 35 L 26 25 L 27 25 L 27 36 C 27 38.214844 26.4375 39.917969 25.40625 41.0625 C 24.375 42.207031 22.839844 42.90625 20.46875 42.90625 C 17.863281 42.90625 16.367188 41.761719 15.375 40.3125 C 14.382813 38.863281 14 37.03125 14 36 L 14 25 C 14 21.316406 14.832031 19.628906 15.65625 18.84375 C 16.480469 18.058594 17.425781 18 18.15625 18 Z M 43.5 21 C 43.785156 21 44 21.214844 44 21.5 L 44 25.5 C 44 25.785156 43.785156 26 43.5 26 C 43.214844 26 43 25.785156 43 25.5 L 43 25.1875 C 43.027344 25.054688 43.027344 24.914063 43 24.78125 L 43 22.1875 C 43.027344 22.054688 43.027344 21.914063 43 21.78125 L 43 21.5 C 43 21.214844 43.214844 21 43.5 21 Z M 26 22 L 27 22 L 27 23 L 26 23 Z M 36 23 L 41 23 L 41 24 L 36 24 Z M 21 25 L 21 35 C 21 35.496094 20.953125 35.816406 20.9375 35.84375 C 20.921875 35.871094 21.03125 35.9375 20.46875 35.9375 C 20.019531 35.9375 20.125 35.898438 20.09375 35.84375 C 20.0625 35.789063 20 35.464844 20 35 L 20 26 C 20 25.566406 20.113281 25.332031 20.21875 25.21875 C 20.324219 25.105469 20.484375 25 21 25 Z"/></svg>