<svg xmlns="http://www.w3.org/2000/svg" viewBox="0 0 24 24">
  <path d="M11.599955,0 C11.931211,0 12.2140264,0.117187408 12.4484012,0.351562225 C12.682776,0.585937042 12.7999634,0.868752446 12.7999634,1.20000844 L12.7999634,19.9031188 L19.1468429,13.5468738 C19.3780864,13.3156302 19.6624581,13.2000084 19.9999578,13.2000084 C20.3437013,13.2000084 20.6296386,13.314074 20.8577696,13.542205 C21.0859007,13.7703361 21.1999663,14.0562734 21.1999663,14.4000169 C21.1999663,14.7375166 21.0843445,15.0218883 20.8531009,15.2531318 L12.4530981,23.6531346 C12.2218545,23.8843782 11.9374829,24 11.5999831,24 C11.2624834,24 10.9781117,23.8843782 10.7468682,23.6531346 L2.34686535,15.2531318 C2.11562178,15.0218883 2,14.7375166 2,14.4000169 C2,14.0562734 2.11406554,13.7703361 2.34219661,13.542205 C2.57032768,13.314074 2.85626496,13.2000084 3.20000844,13.2000084 C3.53750817,13.2000084 3.82187983,13.3156302 4.0531234,13.5468738 L10.4000028,19.9031188 L10.4000028,1.20000844 C10.4000028,0.868752446 10.5171902,0.585937042 10.751565,0.351562225 C10.9859399,0.117187408 11.2687553,0 11.6000112,0 L11.599955,0 Z"/>
</svg>
