<svg xmlns="http://www.w3.org/2000/svg" viewBox="0 0 24 24">
  <path d="M14.4000169,2 C14.7375166,2 15.0218883,2.11567803 15.2531318,2.3469216 L23.6531346,10.7469244 C23.8843782,10.978168 24,11.2625396 24,11.6000394 C24,11.9375391 23.8843782,12.2219108 23.6531346,12.4531543 L15.2531318,20.8531571 C15.0218883,21.0844007 14.7375166,21.2000225 14.4000169,21.2000225 C14.0562734,21.2000225 13.7703361,21.085957 13.542205,20.8578259 C13.314074,20.6296948 13.2000084,20.3437575 13.2000084,20.0000141 C13.2000084,19.6625143 13.3156302,19.3781427 13.5468738,19.1468991 L19.9031188,12.8000197 L1.20000844,12.8000197 C0.868752446,12.8000197 0.585937042,12.6828323 0.351562225,12.4484575 C0.117187408,12.2140826 0,11.9312672 0,11.6000112 C0,11.2687553 0.117187408,10.9859399 0.351562225,10.751565 C0.585937042,10.5171902 0.868752446,10.4000028 1.20000844,10.4000028 L19.9031188,10.4000028 L13.5468738,4.0531234 C13.3156302,3.82187983 13.2000084,3.53750817 13.2000084,3.20000844 C13.2000084,2.85626496 13.314074,2.57032768 13.542205,2.34219661 C13.7703361,2.11406554 14.0562734,2 14.4000169,2 L14.4000169,2 Z"/>
</svg>
