<svg xmlns="http://www.w3.org/2000/svg" width="24" height="24" viewBox="0 0 24 24">
  <path d="M9.59999437,2 C9.93125075,2 10.2140665,2.11718755 10.4484416,2.35156264 C10.6828167,2.58593773 10.8000042,2.86875346 10.8000042,3.20000984 C10.8000042,3.53750998 10.681251,3.82188196 10.4437447,4.0531258 L4.09685785,10.4000127 L22.7999902,10.4000127 C23.1312465,10.4000127 23.4140623,10.5172002 23.6484374,10.7515753 C23.8828125,10.9859504 24,11.2687661 24,11.6000225 C24,11.9312789 23.8828125,12.2140946 23.6484374,12.4484697 C23.4140623,12.6828448 23.1312465,12.8000323 22.7999902,12.8000323 L4.09685785,12.8000323 L10.4437447,19.1469192 C10.681251,19.378163 10.8000042,19.662535 10.8000042,20.0000352 C10.8000042,20.3312915 10.6828167,20.6141073 10.4484416,20.8484824 C10.2140665,21.0828575 9.93125075,21.200045 9.59999437,21.200045 C9.26249424,21.200045 8.97812226,21.0844231 8.74687842,20.8531792 L0.34686576,12.4531666 C0.11562192,12.2094165 0,11.9250445 0,11.6000506 C0,11.2750567 0.11562192,10.9906848 0.34686576,10.7469347 L8.74687842,2.34692201 C8.98438476,2.11567817 9.26875675,2 9.59999437,2 L9.59999437,2 Z"/>
</svg>
