<svg xmlns="http://www.w3.org/2000/svg"  viewBox="0 0 50 50" width="50px" height="50px"><path d="M 14.90625 0 C 14.542969 0 13.832031 0.0507813 12.894531 0.289063 C 11.957031 0.527344 10.828125 0.945313 9.820313 1.738281 C 8.8125 2.53125 7.945313 3.734375 7.652344 5.351563 C 7.363281 6.949219 7.621094 8.90625 8.613281 11.3125 L 14.273438 28.40625 C 13.753906 27.964844 13.175781 27.582031 12.515625 27.359375 C 12.515625 27.355469 12.515625 27.355469 12.515625 27.355469 C 11.039063 26.855469 9.417969 27 8.054688 27.761719 C 8.03125 27.773438 8.007813 27.789063 7.984375 27.800781 L 1.445313 32.167969 C 1.027344 32.449219 0.878906 32.996094 1.105469 33.449219 L 2.105469 35.449219 C 2.226563 35.691406 2.441406 35.875 2.703125 35.953125 C 2.960938 36.035156 3.246094 36.007813 3.484375 35.875 L 10.285156 32.125 C 10.425781 32.050781 10.542969 32.039063 10.691406 32.089844 C 10.84375 32.140625 10.914063 32.203125 10.996094 32.386719 L 12.136719 36.308594 C 12.671875 38.554688 14.6875 40.140625 17 40.140625 C 17.167969 40.140625 17.335938 40.132813 17.503906 40.117188 C 20.058594 39.863281 22 37.609375 22 35 C 22 34.464844 21.902344 33.933594 21.714844 33.429688 L 13.796875 8.75 L 13.792969 8.742188 C 13.785156 8.722656 13.78125 8.699219 13.769531 8.679688 C 13.769531 8.667969 13.765625 8.660156 13.761719 8.648438 C 13.566406 8.109375 13.714844 8.0625 13.707031 8.042969 C 13.820313 8.140625 14.007813 8.339844 14.183594 8.832031 C 14.183594 8.839844 14.1875 8.84375 14.1875 8.851563 C 15.003906 10.992188 25.3125 38.125 25.3125 38.125 C 25.375 38.339844 26.21875 41.117188 28.246094 43.964844 C 30.355469 46.925781 33.855469 50 39 50 C 42.09375 50 44.667969 48.636719 46.390625 46.582031 C 48.113281 44.527344 49.027344 41.800781 49 38.988281 C 48.996094 38.480469 48.957031 37.953125 48.878906 37.417969 C 48.878906 37.410156 48.878906 37.402344 48.875 37.394531 C 48.695313 36.28125 48.125 34.855469 47.375 33.125 C 46.628906 31.390625 45.699219 29.414063 44.800781 27.464844 C 43.902344 25.511719 43.03125 23.59375 42.414063 22.011719 C 41.796875 20.429688 41.496094 19.0625 41.519531 18.832031 C 41.523438 18.789063 41.523438 18.75 41.523438 18.707031 C 41.484375 17.558594 41.734375 17.015625 42.03125 16.671875 C 42.328125 16.332031 42.777344 16.125 43.359375 15.964844 C 44.070313 15.769531 44.632813 15.535156 45.089844 15.214844 C 45.546875 14.894531 45.953125 14.421875 45.996094 13.78125 C 46.039063 13.144531 45.664063 12.597656 45.25 12.277344 C 44.835938 11.953125 44.339844 11.75 43.75 11.59375 C 41.898438 11.113281 31.703125 7.734375 30.210938 7.226563 C 30.210938 7.226563 30.207031 7.226563 30.203125 7.226563 C 29.730469 7.070313 29.253906 6.984375 28.777344 7 C 28.296875 7.019531 27.738281 7.128906 27.324219 7.648438 C 26.90625 8.171875 26.960938 8.933594 27.214844 9.476563 C 27.46875 10.015625 27.894531 10.519531 28.53125 11.121094 C 29.566406 12.089844 29.765625 12.996094 29.890625 14.316406 C 30.019531 15.636719 29.992188 17.300781 30.640625 19.191406 C 30.824219 19.832031 31.214844 20.75 31.78125 22.035156 C 32.359375 23.339844 33.097656 24.953125 33.886719 26.679688 C 35.460938 30.132813 37.242188 34.066406 38.316406 36.875 C 38.320313 36.878906 38.324219 36.886719 38.328125 36.894531 C 38.734375 37.898438 38.988281 38.703125 39 39.15625 C 39.011719 39.605469 39.015625 39.65625 38.558594 39.910156 C 38.199219 40.109375 38.078125 40.054688 37.675781 39.746094 C 37.28125 39.4375 36.832031 38.828125 36.53125 38.28125 C 36.515625 38.242188 33.441406 31.371094 31.179688 26.304688 C 31.511719 25.796875 31.769531 25.144531 31.425781 24.578125 C 31.164063 24.148438 30.617188 23.964844 30.097656 23.886719 C 29.351563 22.214844 29.242188 21.96875 28.46875 20.230469 C 28.773438 19.730469 28.992188 19.109375 28.664063 18.574219 C 28.417969 18.167969 27.914063 17.984375 27.425781 17.898438 C 26.648438 16.160156 26.464844 15.746094 25.765625 14.179688 C 26.054688 13.691406 26.25 13.097656 25.933594 12.578125 C 25.695313 12.1875 25.222656 12.003906 24.75 11.910156 C 23.476563 9.054688 21.671875 5.019531 21.328125 4.257813 C 20.171875 1.664063 17.617188 0 14.90625 0 Z M 14.90625 2 C 16.785156 2 18.667969 3.199219 19.503906 5.070313 C 19.8125 5.765625 21.507813 9.558594 22.613281 12.035156 C 22.4375 12.089844 22.257813 12.148438 22.09375 12.230469 C 20.765625 12.863281 20.644531 13.941406 21.136719 14.960938 C 21.621094 15.980469 22.53125 16.566406 23.859375 15.925781 C 23.992188 15.863281 24.121094 15.777344 24.25 15.691406 C 24.707031 16.710938 24.816406 16.957031 25.300781 18.046875 C 25.136719 18.097656 24.972656 18.152344 24.820313 18.222656 C 23.496094 18.859375 23.371094 19.933594 23.863281 20.953125 C 24.347656 21.976563 25.261719 22.558594 26.589844 21.921875 C 26.707031 21.863281 26.820313 21.78125 26.9375 21.710938 C 27.441406 22.835938 27.503906 22.976563 27.996094 24.074219 C 27.855469 24.121094 27.710938 24.164063 27.582031 24.226563 C 26.257813 24.863281 26.132813 25.9375 26.625 26.957031 C 27.109375 27.980469 28.023438 28.5625 29.351563 27.921875 C 29.449219 27.878906 29.542969 27.808594 29.640625 27.75 C 31.738281 32.449219 34.734375 39.15625 34.734375 39.15625 C 34.742188 39.179688 34.753906 39.203125 34.765625 39.222656 C 35.152344 39.929688 35.6875 40.734375 36.457031 41.328125 C 37.226563 41.921875 38.460938 42.253906 39.53125 41.65625 C 40.5 41.117188 41.027344 40.066406 41 39.09375 C 40.96875 38.125 40.609375 37.195313 40.179688 36.140625 C 39.0625 33.230469 37.28125 29.300781 35.703125 25.847656 C 34.917969 24.121094 34.179688 22.511719 33.613281 21.230469 C 33.046875 19.945313 32.636719 18.917969 32.550781 18.621094 C 32.546875 18.597656 32.542969 18.578125 32.535156 18.5625 C 32.007813 17.027344 32.027344 15.613281 31.886719 14.125 C 31.742188 12.640625 31.347656 11.015625 29.902344 9.660156 C 29.898438 9.660156 29.898438 9.660156 29.898438 9.660156 C 29.613281 9.390625 29.570313 9.285156 29.425781 9.101563 C 29.484375 9.113281 29.515625 9.105469 29.574219 9.125 C 31.121094 9.648438 40.96875 12.9375 43.25 13.53125 C 43.460938 13.585938 43.519531 13.640625 43.652344 13.699219 C 43.449219 13.804688 43.25 13.921875 42.832031 14.035156 C 42.082031 14.242188 41.199219 14.582031 40.523438 15.359375 C 39.859375 16.121094 39.503906 17.246094 39.535156 18.6875 C 39.4375 19.863281 39.910156 21.101563 40.550781 22.738281 C 41.199219 24.402344 42.082031 26.34375 42.984375 28.300781 C 43.886719 30.257813 44.8125 32.230469 45.542969 33.917969 C 46.269531 35.605469 46.796875 37.054688 46.902344 37.714844 C 46.964844 38.164063 46.996094 38.59375 47 39.011719 C 47.023438 41.371094 46.242188 43.644531 44.859375 45.296875 C 43.472656 46.949219 41.519531 48 39 48 C 34.644531 48 31.765625 45.460938 29.875 42.804688 C 27.984375 40.148438 27.207031 37.492188 27.207031 37.492188 C 27.203125 37.464844 27.191406 37.441406 27.183594 37.417969 C 27.183594 37.417969 16.894531 10.332031 16.066406 8.15625 C 15.777344 7.355469 15.386719 6.753906 14.851563 6.355469 C 14.316406 5.957031 13.585938 5.820313 12.984375 6.054688 C 11.824219 6.5 11.433594 7.867188 11.832031 9.164063 C 11.84375 9.207031 11.851563 9.25 11.867188 9.289063 L 11.878906 9.324219 L 19.828125 34.085938 C 19.832031 34.101563 19.835938 34.117188 19.84375 34.132813 C 19.949219 34.410156 20 34.699219 20 35 C 20 36.609375 18.785156 37.980469 17.308594 38.125 C 17.308594 38.125 17.304688 38.125 17.304688 38.125 C 17.203125 38.136719 17.097656 38.140625 17 38.140625 C 15.589844 38.140625 14.40625 37.210938 14.082031 35.84375 C 14.078125 35.828125 14.074219 35.8125 14.070313 35.796875 L 12.882813 31.71875 C 12.871094 31.679688 12.855469 31.644531 12.839844 31.605469 C 12.558594 30.957031 12.007813 30.425781 11.339844 30.199219 C 11.339844 30.195313 11.339844 30.195313 11.339844 30.195313 C 10.675781 29.96875 9.933594 30.035156 9.320313 30.375 L 3.429688 33.625 L 3.289063 33.34375 L 9.035156 29.503906 C 9.902344 29.027344 10.9375 28.933594 11.871094 29.25 C 12.800781 29.566406 13.554688 30.269531 13.945313 31.171875 L 15.011719 34.507813 L 14.980469 34.371094 C 15.089844 35.027344 15.515625 35.550781 15.921875 35.773438 C 16.324219 35.996094 16.75 36 16.75 36 C 17.109375 36 17.480469 35.839844 17.714844 35.628906 C 17.945313 35.417969 18.058594 35.1875 18.128906 35 C 18.203125 34.808594 18.234375 34.644531 18.25 34.503906 C 18.261719 34.433594 18.265625 34.367188 18.265625 34.296875 C 18.265625 34.230469 18.34375 34.285156 18.199219 33.898438 L 10.53125 10.753906 C 10.519531 10.707031 10.503906 10.660156 10.484375 10.613281 C 9.570313 8.417969 9.417969 6.832031 9.621094 5.703125 C 9.824219 4.578125 10.359375 3.859375 11.058594 3.3125 C 11.757813 2.761719 12.628906 2.417969 13.382813 2.226563 C 14.136719 2.039063 14.808594 2 14.90625 2 Z M 38.597656 24.003906 C 38.214844 23.980469 37.824219 24.097656 37.511719 24.371094 C 36.886719 24.917969 36.820313 25.863281 37.363281 26.484375 C 37.910156 27.109375 38.867188 27.175781 39.488281 26.628906 C 40.113281 26.085938 40.175781 25.132813 39.628906 24.511719 C 39.355469 24.199219 38.980469 24.027344 38.597656 24.003906 Z M 40.597656 28.003906 C 40.214844 27.980469 39.824219 28.097656 39.511719 28.371094 C 38.886719 28.917969 38.820313 29.863281 39.363281 30.484375 C 39.910156 31.109375 40.867188 31.175781 41.488281 30.628906 C 42.113281 30.085938 42.175781 29.132813 41.628906 28.511719 C 41.355469 28.199219 40.980469 28.027344 40.597656 28.003906 Z M 42.597656 32.003906 C 42.214844 31.976563 41.820313 32.097656 41.511719 32.371094 C 40.886719 32.917969 40.824219 33.867188 41.367188 34.488281 C 41.910156 35.109375 42.859375 35.175781 43.484375 34.628906 C 44.109375 34.085938 44.175781 33.136719 43.632813 32.511719 C 43.359375 32.199219 42.980469 32.03125 42.597656 32.003906 Z"/></svg>