<svg xmlns="http://www.w3.org/2000/svg" width="24" height="24" viewBox="0 0 24 24">
  <path d="M21.9999783,0 L21.9973221,17.3333145 C21.9973221,18.9906565 20.2626625,21.3333102 16.9999837,21.3333102 C15.3426418,21.3333102 13.999987,20.462634 13.999987,18.8333129 C13.999987,16.7146433 15.9266516,15.4333166 17.9999826,15.4333166 C18.5759716,15.4333166 19.0053201,15.5119884 19.3333145,15.5973268 L19.3333145,5.81866556 L10,7.51600747 L10,20 L9.99733507,20 C9.99733507,21.6573463 8.2626755,24 5,24 C3.34265479,24 2,23.1293239 2,21.5 C2,19.3813331 3.92666458,18.1000064 6,18.1000064 C6.57598462,18.1000064 7.00533311,18.1786782 7.33332755,18.2640166 L7.33332755,2.66668981 L21.9999783,0 L21.9999783,0 Z"/>
</svg>
