<svg xmlns="http://www.w3.org/2000/svg" width="24" height="24" viewBox="0 0 24 24">
  <path d="M21.1704545,17.4545455 L21.0340909,22.2613636 C19.8977051,22.9204434 18.7897838,23.3750111 17.7102273,23.625 C16.6306707,23.8749889 15.4772727,24 14.25,24 C12.5681596,24 11.034102,23.7045344 9.64772727,23.1136364 C8.26135254,22.5227384 7.07386364,21.6988636 6.08522727,20.6420455 C5.09659091,19.5852273 4.33523837,18.3238636 3.80113636,16.8579545 C3.26703436,15.3920455 3,13.7727273 3,12 C3,10.2499778 3.27842019,8.63638583 3.83522727,7.15909091 C4.39203436,5.68179599 5.17046564,4.41477273 6.17045455,3.35795455 C7.17044345,2.30113636 8.35793235,1.47726163 9.73295455,0.886363636 C11.1079767,0.295465643 12.6136364,0 14.25,0 C15.4545676,0 16.5681818,0.130670721 17.5909091,0.392045455 C18.6136364,0.653420188 19.6704545,1.10226163 20.7613636,1.73863636 L20.8977273,6.54545455 L19.5681818,6.54545455 L18.9545455,2.31818182 C18.2272838,1.90909091 17.5170344,1.60796564 16.8238636,1.41477273 C16.1306929,1.22157981 15.3522616,1.125 14.4886364,1.125 C13.1022616,1.125 11.8352384,1.3749889 10.6875,1.875 C9.53976163,2.3750111 8.55112527,3.09657981 7.72159091,4.03977273 C6.89205655,4.98296564 6.2499889,6.12497781 5.79545455,7.46590909 C5.34092019,8.80684038 5.11363636,10.3181596 5.11363636,12 C5.11363636,13.7045455 5.34092019,15.2272505 5.79545455,16.5681818 C6.2499889,17.9091131 6.88636364,19.0511253 7.70454545,19.9943182 C8.52272727,20.9375111 9.48862527,21.6534202 10.6022727,22.1420455 C11.7159202,22.6306707 12.9431596,22.875 14.2840909,22.875 C15.1477162,22.875 15.9886364,22.7840798 16.8068182,22.6022727 C17.625,22.4204656 18.4318293,22.1022616 19.2272727,21.6477273 L19.8409091,17.4545455 L21.1704545,17.4545455 L21.1704545,17.4545455 Z"/>
</svg>
