<svg fill="#000000" xmlns="http://www.w3.org/2000/svg"  viewBox="0 0 50 50" width="50px" height="50px"><path d="M 44 0.0625 C 43.457031 0.0703125 42.902344 0.285156 42.5 0.6875 L 11.90625 31.375 C 11.789063 31.425781 11.683594 31.5 11.59375 31.59375 L 0.78125 42.5 C 0.269531 43.011719 0.0820313 43.757813 0.21875 44.4375 C 0.226563 44.46875 0.210938 44.5 0.21875 44.53125 L 0.25 44.53125 C 0.402344 45.453125 0.933594 46.625 2.21875 47.8125 C 3.417969 49.007813 4.5625 49.59375 5.4375 49.84375 C 5.449219 49.855469 5.457031 49.863281 5.46875 49.875 C 6.171875 50.050781 6.964844 49.847656 7.5 49.3125 L 18.40625 38.40625 C 18.503906 38.308594 18.578125 38.191406 18.625 38.0625 L 49.21875 7.5 C 49.730469 6.988281 49.917969 6.242188 49.78125 5.5625 C 49.773438 5.53125 49.789063 5.5 49.78125 5.46875 L 49.75 5.46875 C 49.597656 4.550781 49.085938 3.367188 47.8125 2.1875 C 47.804688 2.179688 47.789063 2.195313 47.78125 2.1875 C 46.582031 0.992188 45.4375 0.40625 44.5625 0.15625 C 44.550781 0.144531 44.542969 0.136719 44.53125 0.125 C 44.355469 0.0820313 44.179688 0.0585938 44 0.0625 Z M 43.96875 2.0625 C 43.988281 2.058594 44.003906 2.058594 44.03125 2.0625 C 44.035156 2.0625 44.058594 2.0625 44.0625 2.0625 C 44.582031 2.214844 45.421875 2.609375 46.40625 3.59375 C 46.417969 3.605469 46.425781 3.613281 46.4375 3.625 C 47.496094 4.597656 47.746094 5.378906 47.8125 5.84375 C 47.820313 5.875 47.832031 5.90625 47.84375 5.9375 C 47.867188 6.035156 47.847656 6.027344 47.78125 6.09375 L 17.65625 36.25 L 13.75 32.34375 L 43.90625 2.09375 C 43.933594 2.066406 43.949219 2.066406 43.96875 2.0625 Z M 42 6 C 40.894531 6 40 6.894531 40 8 C 40 9.105469 40.894531 10 42 10 C 43.105469 10 44 9.105469 44 8 C 44 6.894531 43.105469 6 42 6 Z M 37 11 C 35.894531 11 35 11.894531 35 13 C 35 14.105469 35.894531 15 37 15 C 38.105469 15 39 14.105469 39 13 C 39 11.894531 38.105469 11 37 11 Z M 32 16 C 30.894531 16 30 16.894531 30 18 C 30 19.105469 30.894531 20 32 20 C 33.105469 20 34 19.105469 34 18 C 34 16.894531 33.105469 16 32 16 Z M 27 21 C 25.894531 21 25 21.894531 25 23 C 25 24.105469 25.894531 25 27 25 C 28.105469 25 29 24.105469 29 23 C 29 21.894531 28.105469 21 27 21 Z M 12.3125 33.71875 L 16.3125 37.6875 L 6.09375 47.90625 C 6.042969 47.957031 6.019531 47.949219 5.96875 47.9375 C 5.964844 47.9375 5.941406 47.9375 5.9375 47.9375 C 5.417969 47.785156 4.578125 47.390625 3.59375 46.40625 C 3.582031 46.394531 3.574219 46.386719 3.5625 46.375 C 2.503906 45.402344 2.253906 44.621094 2.1875 44.15625 C 2.179688 44.125 2.167969 44.09375 2.15625 44.0625 C 2.132813 43.964844 2.152344 43.972656 2.21875 43.90625 Z M 10.1875 37.1875 L 4.5 42.8125 L 7.1875 45.5 L 12.8125 39.8125 L 8.6875 42.5 L 7.5 41.3125 Z"/></svg>