<svg xmlns="http://www.w3.org/2000/svg"  viewBox="0 0 50 50" width="50px" height="50px"><path d="M 16.5 3 C 8.5035851 3 2 9.5035851 2 17.5 L 2 39 L 5 39 L 5 47 L 45 47 L 45 39 L 48 39 L 48 28 C 48 23.041484 43.958516 19 39 19 L 36.003906 19 L 36 19 C 33.385479 18.98791 32.214469 17.9186 31.517578 16.837891 C 30.820251 15.756504 30.722656 14.693359 30.722656 14.693359 L 30.716797 14.634766 L 30.705078 14.578125 C 29.352341 7.9689501 23.49692 3 16.5 3 z M 16.5 5 C 22.55108 5 27.580873 9.2876393 28.746094 14.980469 C 28.778521 15.266788 28.962894 16.567997 29.835938 17.921875 C 30.818109 19.444988 32.784065 20.986777 35.996094 21 L 35.998047 21 L 36 21 L 39 21 C 42.877484 21 46 24.122516 46 28 L 46 37 L 4 37 L 4 17.5 C 4 10.584415 9.5844149 5 16.5 5 z M 7 39 L 10 39 L 10 43 L 12 43 L 12 39 L 14 39 L 14 43 L 16 43 L 16 39 L 20 39 L 20 43 L 22 43 L 22 39 L 24 39 L 24 43 L 26 43 L 26 39 L 28 39 L 28 43 L 30 43 L 30 39 L 34 39 L 34 43 L 36 43 L 36 39 L 38 39 L 38 43 L 40 43 L 40 39 L 43 39 L 43 45 L 7 45 L 7 39 z"/></svg>