<svg xmlns="http://www.w3.org/2000/svg" viewBox="0 0 24 24">
  <path d="M12,0 C12.331256,0 12.6140714,0.117187408 12.8484462,0.351562225 C13.082821,0.585937042 13.2000084,0.868752446 13.2000084,1.20000844 L13.2000084,10.7999916 L22.7999916,10.7999916 C23.1312476,10.7999916 23.414063,10.917179 23.6484378,11.1515538 C23.8828126,11.3859286 24,11.668744 24,12 C24,12.331256 23.8828126,12.6140714 23.6484378,12.8484462 C23.414063,13.082821 23.1312476,13.2000084 22.7999916,13.2000084 L13.2000084,13.2000084 L13.2000084,22.7999916 C13.2000084,23.1312476 13.082821,23.414063 12.8484462,23.6484378 C12.6140714,23.8828126 12.331256,24 12,24 C11.668744,24 11.3859286,23.8828126 11.1515538,23.6484378 C10.917179,23.414063 10.7999916,23.1312476 10.7999916,22.7999916 L10.7999916,13.2000084 L1.20000844,13.2000084 C0.868752446,13.2000084 0.585937042,13.082821 0.351562225,12.8484462 C0.117187408,12.6140714 0,12.331256 0,12 C0,11.668744 0.117187408,11.3859286 0.351562225,11.1515538 C0.585937042,10.917179 0.868752446,10.7999916 1.20000844,10.7999916 L10.7999916,10.7999916 L10.7999916,1.20000844 C10.7999916,0.868752446 10.917179,0.585937042 11.1515538,0.351562225 C11.3859286,0.117187408 11.668744,0 12,0 L12,0 Z"/>
</svg>
