<svg fill="#000000" xmlns="http://www.w3.org/2000/svg"  viewBox="0 0 50 50"><path d="M 47.375 0 C 47.148438 0.03125 46.9375 0.144531 46.78125 0.3125 C 45.835938 1.261719 45.167969 1.375 44.46875 1.4375 C 44.121094 1.46875 43.757813 1.484375 43.34375 1.53125 C 42.929688 1.578125 42.390625 1.703125 41.96875 2.125 C 41.066406 3.03125 40.828125 4.371094 41.28125 5.5 L 40.5625 6.15625 L 39.71875 5.28125 C 39.511719 5.058594 39.210938 4.945313 38.90625 4.96875 C 38.863281 4.976563 38.820313 4.988281 38.78125 5 C 38.40625 5.066406 38.105469 5.339844 38 5.703125 C 37.894531 6.070313 38.003906 6.460938 38.28125 6.71875 L 39.0625 7.5 L 38.46875 8.03125 L 37.71875 7.28125 C 37.511719 7.058594 37.210938 6.945313 36.90625 6.96875 C 36.863281 6.976563 36.820313 6.988281 36.78125 7 C 36.40625 7.066406 36.105469 7.339844 36 7.703125 C 35.894531 8.070313 36.003906 8.460938 36.28125 8.71875 L 36.96875 9.375 L 32.21875 13.65625 C 30.707031 12.421875 28.484375 11.09375 25.8125 11.09375 C 24.207031 11.09375 22.484375 11.628906 20.78125 12.875 C 19.933594 13.496094 18.5 14.453125 16.8125 15.625 L 15.875 16.28125 L 16.65625 17.125 C 17.46875 18.027344 17.523438 18.621094 17.25 19.46875 C 16.980469 20.308594 16.203125 21.355469 15.15625 22.40625 C 13.761719 23.800781 12.414063 24.6875 11.4375 24.6875 C 10.886719 24.6875 10.34375 24.46875 9.65625 23.78125 C 9.355469 23.480469 9.183594 23.21875 9.03125 22.90625 L 8.46875 21.75 L 7.5 22.5625 C 6.097656 23.722656 4.742188 24.914063 3.5625 26.09375 C 0.734375 28.921875 -0.363281 32.25 0.09375 35.5 C 0.550781 38.734375 2.480469 41.828125 5.375 44.59375 C 5.386719 44.605469 5.394531 44.613281 5.40625 44.625 C 8.589844 47.953125 12.230469 50 15.96875 50 C 18.742188 50 21.503906 48.84375 23.90625 46.4375 C 25.085938 45.257813 26.273438 43.90625 27.4375 42.5 L 28.25 41.53125 L 27.09375 40.96875 C 26.769531 40.8125 26.523438 40.644531 26.21875 40.34375 C 25.269531 39.394531 25.179688 38.738281 25.4375 37.875 C 25.695313 37.011719 26.5 35.9375 27.59375 34.84375 C 28.984375 33.453125 30.304688 32.625 31.28125 32.625 C 31.796875 32.625 32.277344 32.800781 32.90625 33.375 L 33.75 34.125 L 34.40625 33.1875 C 35.578125 31.507813 36.535156 30.097656 37.15625 29.25 C 38.964844 26.78125 39.207031 24.234375 38.65625 22.125 C 38.191406 20.339844 37.226563 18.886719 36.3125 17.78125 L 40.59375 13.03125 L 41.28125 13.71875 C 41.679688 14.117188 42.320313 14.117188 42.71875 13.71875 C 43.117188 13.320313 43.117188 12.679688 42.71875 12.28125 L 41.96875 11.53125 L 42.5 10.9375 L 43.28125 11.71875 C 43.679688 12.117188 44.320313 12.117188 44.71875 11.71875 C 45.117188 11.320313 45.117188 10.679688 44.71875 10.28125 L 43.84375 9.4375 L 44.5 8.71875 C 45.628906 9.171875 46.972656 8.9375 47.875 8.03125 C 48.296875 7.609375 48.449219 7.074219 48.5 6.65625 C 48.550781 6.238281 48.527344 5.886719 48.5625 5.53125 C 48.632813 4.816406 48.773438 4.132813 49.6875 3.21875 C 50.074219 2.828125 50.074219 2.203125 49.6875 1.8125 L 48.1875 0.3125 C 48 0.113281 47.742188 0.00390625 47.46875 0 C 47.4375 0 47.40625 0 47.375 0 Z M 47.34375 2.28125 L 47.71875 2.65625 C 47.035156 3.632813 46.667969 4.605469 46.59375 5.34375 C 46.546875 5.820313 46.527344 6.179688 46.5 6.40625 C 46.472656 6.632813 46.453125 6.640625 46.46875 6.625 C 46.121094 6.976563 45.554688 7.046875 45.125 6.8125 C 45.113281 6.800781 45.105469 6.792969 45.09375 6.78125 C 45.015625 6.679688 44.921875 6.597656 44.8125 6.53125 L 44.71875 6.5 L 43.375 5.15625 C 43.375 5.144531 43.375 5.136719 43.375 5.125 C 43.355469 5.105469 43.332031 5.085938 43.3125 5.0625 C 42.9375 4.621094 42.964844 3.941406 43.375 3.53125 C 43.363281 3.542969 43.34375 3.523438 43.5625 3.5 C 43.78125 3.476563 44.148438 3.480469 44.625 3.4375 C 45.367188 3.371094 46.351563 2.984375 47.34375 2.28125 Z M 42.53125 7.09375 L 42.9375 7.5 L 41.78125 8.78125 C 41.734375 8.828125 41.691406 8.882813 41.65625 8.9375 L 39.875 10.90625 C 39.800781 10.96875 39.738281 11.042969 39.6875 11.125 L 26.875 25.25 L 24.75 23.125 L 32.65625 15.96875 C 32.816406 15.902344 32.957031 15.792969 33.0625 15.65625 L 33.125 15.59375 C 33.148438 15.5625 33.167969 15.53125 33.1875 15.5 L 38.875 10.375 L 38.9375 10.34375 C 39.089844 10.261719 39.21875 10.144531 39.3125 10 C 39.335938 9.96875 39.355469 9.9375 39.375 9.90625 L 41.03125 8.4375 C 41.042969 8.425781 41.050781 8.417969 41.0625 8.40625 L 41.125 8.375 C 41.179688 8.339844 41.234375 8.296875 41.28125 8.25 L 41.375 8.125 C 41.386719 8.113281 41.394531 8.105469 41.40625 8.09375 Z M 25.8125 13.09375 C 27.691406 13.09375 29.425781 14.039063 30.71875 15.03125 L 22.625 22.3125 L 21.84375 23.03125 L 26.96875 28.15625 L 27.6875 27.375 L 34.96875 19.28125 C 35.6875 20.203125 36.386719 21.351563 36.71875 22.625 C 37.148438 24.265625 37.046875 26.066406 35.5625 28.09375 C 35.035156 28.816406 34.183594 30.027344 33.3125 31.28125 C 32.648438 30.894531 31.980469 30.625 31.28125 30.625 C 29.324219 30.625 27.671875 31.921875 26.15625 33.4375 C 24.964844 34.628906 23.964844 35.871094 23.53125 37.3125 C 23.097656 38.753906 23.449219 40.417969 24.78125 41.75 C 24.914063 41.882813 25.054688 41.921875 25.1875 42.03125 C 24.289063 43.082031 23.382813 44.148438 22.5 45.03125 C 20.398438 47.132813 18.199219 48 15.96875 48 C 13.585938 48 11.085938 46.941406 8.6875 44.96875 L 17.625 37.125 L 18.40625 36.4375 L 13.375 31.40625 L 12.6875 32.21875 L 4.875 41.125 C 3.324219 39.183594 2.367188 37.164063 2.09375 35.21875 C 1.71875 32.566406 2.496094 29.972656 4.96875 27.5 C 5.847656 26.621094 6.914063 25.707031 7.96875 24.8125 C 8.078125 24.949219 8.117188 25.085938 8.25 25.21875 C 9.210938 26.179688 10.328125 26.6875 11.4375 26.6875 C 13.402344 26.6875 15.042969 25.363281 16.5625 23.84375 C 17.71875 22.6875 18.710938 21.480469 19.15625 20.09375 C 19.496094 19.03125 19.246094 17.871094 18.65625 16.78125 C 19.957031 15.882813 21.191406 15.011719 21.9375 14.46875 L 21.96875 14.46875 C 23.367188 13.445313 24.617188 13.09375 25.8125 13.09375 Z M 13.5 34.34375 L 15.46875 36.3125 L 7.21875 43.59375 C 7.089844 43.464844 6.941406 43.355469 6.8125 43.21875 L 6.78125 43.21875 L 6.78125 43.1875 C 6.585938 43.003906 6.402344 42.8125 6.21875 42.625 Z"/></svg>