<svg xmlns="http://www.w3.org/2000/svg" width="24" height="24" viewBox="0 0 24 24">
  <path fill-rule="evenodd" d="M23.6234285,4.12954341 L23.7322334,3.82572512 C23.1791931,3.3501545 23.4179082,2.70805479 23.4179082,2.70805479 L21.7434192,1.69761445 L21.5785727,1.88641911 C21.1185595,1.61639823 20.5804773,1.24196383 20.0052559,0.721022736 C18.3403463,-0.786905334 16.0223,0.100737725 14.4760308,3.0993367 C14.0954185,3.83775904 13.3242049,5.2713328 12.3788727,7.01036351 L11.809901,6.70849113 L10.9223522,8.37987579 L11.4737533,8.67278674 C11.2623931,9.06022803 11.0468836,9.45494089 10.8280956,9.85503061 L10.2016478,9.52248451 L9.31409899,11.1939716 L9.918878,11.5149446 C9.66720264,11.9740262 9.41542483,12.4331078 9.16569608,12.8878367 L8.51927,12.5447417 L7.6317212,14.2160239 L8.25499294,14.5468289 C6.44536874,17.836649 4.96400339,20.5193957 4.96400339,20.5193957 C4.96400339,20.5193957 4.66663407,21.2355937 4.22055448,21.0219531 C3.77478226,20.8083125 3.53714293,20.6199175 4.22055448,19.748405 C4.90427339,18.8776606 7.12391378,16.3313837 7.08426454,11.1389228 C7.08426454,11.1389228 7.00532464,10.5358949 8.27338322,9.53098508 L0.272842341,10.3687513 C0.272842341,10.3687513 1.29004519,10.7654613 1.89164816,11.3065784 C2.6084081,11.9509313 3.51680605,14.2883299 1.4557114,17.135455 C-0.605229571,19.9831946 -0.446581376,21.7254514 1.73335855,23.0648533 C3.91340092,24.4053305 7.00491483,24.5056986 8.1146838,22.0268629 C9.22455522,19.5475152 16.7550426,2.49625765 16.7550426,2.49625765 C16.7550426,2.49625765 17.3495251,0.519518442 19.7278136,1.75932034 L21.0701505,2.46855401 L20.8812787,2.68526714 L23.6234285,4.12954341 L23.6234285,4.12954341 Z"/>
</svg>
