<svg xmlns="http://www.w3.org/2000/svg" width="24" height="24" viewBox="0 0 24 24">
  <path d="M7.06272754,3 C9.00794096,3 10.4668288,3.39998471 11.4394503,4.19986537 C12.4120718,4.99974603 12.8983678,6.05418124 12.8983678,7.36311183 C12.8983678,8.38118211 12.5529749,9.2946847 11.8621298,10.1036788 C11.1712848,10.9126729 10.07146,11.4625853 8.56253706,11.7534752 C9.48970979,11.8625404 10.2850337,12.0534489 10.9485977,12.3261416 C11.6121616,12.5988342 12.1575469,12.9442567 12.5847535,13.3623795 C13.0119601,13.7805023 13.3255744,14.2486306 13.5255372,14.7667348 C13.7255,15.2848389 13.8255109,15.8438648 13.8255109,16.4437827 C13.8255109,17.1164304 13.6937213,17.7527133 13.4301125,18.3526311 C13.1665037,18.952549 12.7620215,19.4752099 12.2166362,19.9206138 C11.6712509,20.3660177 10.9804355,20.7205241 10.1441603,20.9841033 C9.30788511,21.2476825 8.30804169,21.3795017 7.14454125,21.3795017 L1.77635684e-15,21.3795017 L1.77635684e-15,20.6159564 L2.78145901,20.3977964 C2.79962668,19.1433984 2.80874011,17.8981138 2.80874011,16.6619131 L2.80874011,7.71758859 C2.80874011,6.48138787 2.79965627,5.23610332 2.78145901,3.98170534 L1.77635684e-15,3.76354531 L1.77635684e-15,3 L7.06272754,3 Z M6.32649292,12.2442983 L4.28129812,12.2442983 L4.28129812,16.6482726 C4.28129812,17.966287 4.29946579,19.2524932 4.33583073,20.5068912 L6.89912971,20.5068912 C8.64438036,20.5068912 9.97600575,20.1523848 10.8940651,19.4434017 C11.8121244,18.7344186 12.2711688,17.7254322 12.2711688,16.4165016 C12.2711688,15.071206 11.8030405,14.0395248 10.8668135,13.3214283 C9.93058657,12.6033317 8.4171365,12.2442983 6.32649292,12.2442983 Z M17.8916671,3.53328336 L17.8916671,11.2777425 C18.6370447,10.4596646 19.0733352,10.0960744 19.6005528,9.82338176 C20.1641058,9.55068912 20.745856,9.40525896 21.2912413,9.40525896 C22.8910618,9.40525896 24,10.4596646 24,11.9867552 C24,13.2593209 23.5636799,14.2046613 22.3820118,15.4772269 C21.6366342,16.2771372 20.4731634,17.2588425 19.3096629,18.0950881 C18.2916222,18.8222685 18.0189296,19.0767638 17.5826095,19.6585141 L17.5826095,19.6585141 L17.0553919,19.6585141 L17.0553919,3.53328336 L17.8916671,3.53328336 Z M20.8367535,10.3687966 C20.5640609,10.3687966 20.2732006,10.4415265 19.964143,10.5505917 C19.0551675,10.9141819 18.5824825,11.3323047 17.8916671,12.4230753 L17.8916671,12.4230753 L17.8916671,18.2586859 C21.3458035,15.2954318 22.4547417,13.7683708 22.4547417,12.0594851 C22.4547417,11.1141447 21.745729,10.3687966 20.8367535,10.3687966 Z M6.54462336,3.87261053 L4.33580114,3.87261053 C4.29943621,5.09067316 4.28126853,6.32231717 4.28126853,7.56763131 L4.28126853,11.4262203 L6.08105179,11.4262203 C7.86266738,11.4262203 9.19881989,11.0762707 10.0896277,10.3763418 C10.9804355,9.67641297 11.4258098,8.68109667 11.4258098,7.39036334 C11.4258098,6.26322784 11.048579,5.39517403 10.2941472,4.78614271 C9.53971528,4.17711139 8.28987401,3.87261053 6.54462336,3.87261053 Z"/>
</svg>
