<svg fill="#000000" xmlns="http://www.w3.org/2000/svg"  viewBox="0 0 50 50" width="50px" height="50px"><path d="M 39.625 0 C 39.207031 -0.0429688 38.699219 0.214844 38.46875 0.53125 C 38.019531 1.152344 38.136719 1.726563 38.3125 2.34375 C 38.316406 2.355469 38.308594 2.363281 38.3125 2.375 C 38.296875 2.328125 38.292969 2.34375 38.28125 2.46875 C 38.265625 2.632813 38.214844 2.867188 38.15625 3.15625 C 38.042969 3.734375 37.867188 4.503906 37.59375 5.3125 C 37.046875 6.933594 36.148438 8.726563 35.1875 9.6875 L 33.59375 11.28125 C 33.570313 11.300781 33.550781 11.320313 33.53125 11.34375 L 33.5 11.34375 L 10 34.875 C 9.96875 34.894531 9.9375 34.914063 9.90625 34.9375 L 9.84375 35 C 9.808594 35.027344 9.777344 35.058594 9.75 35.09375 L 0.34375 45.9375 C 0.0820313 46.238281 -0.015625 46.652344 0 46.96875 C 0.015625 47.285156 0.105469 47.554688 0.21875 47.78125 C 0.441406 48.234375 0.769531 48.597656 1.125 48.9375 C 1.480469 49.277344 1.875 49.574219 2.3125 49.78125 C 2.53125 49.882813 2.769531 49.972656 3.0625 50 C 3.355469 50.027344 3.761719 49.964844 4.09375 49.6875 L 14.90625 40.25 C 14.929688 40.230469 14.949219 40.210938 14.96875 40.1875 L 15 40.1875 L 19.125 36.03125 C 19.382813 36.160156 19.652344 36.273438 19.9375 36.34375 C 19.9375 36.34375 20.355469 36.542969 20.84375 36.75 L 18.8125 38.78125 C 18.515625 39.023438 18.378906 39.410156 18.464844 39.785156 C 18.550781 40.15625 18.84375 40.449219 19.214844 40.535156 C 19.589844 40.621094 19.976563 40.484375 20.21875 40.1875 L 37.1875 23.21875 C 37.5 22.921875 37.589844 22.457031 37.40625 22.066406 C 37.21875 21.671875 36.804688 21.445313 36.375 21.5 C 36.148438 21.53125 35.9375 21.644531 35.78125 21.8125 L 34.75 22.84375 C 34.542969 22.355469 34.34375 21.9375 34.34375 21.9375 C 34.273438 21.652344 34.160156 21.382813 34.03125 21.125 L 38.625 16.53125 C 38.667969 16.503906 38.710938 16.472656 38.75 16.4375 L 40.34375 14.84375 C 41.265625 13.921875 42.945313 13.066406 44.53125 12.53125 C 45.324219 12.261719 46.101563 12.050781 46.71875 11.9375 C 47.335938 11.824219 47.84375 11.839844 47.875 11.84375 C 48.238281 11.90625 48.566406 11.917969 48.90625 11.84375 C 49.246094 11.769531 49.675781 11.527344 49.875 11.125 C 50.074219 10.722656 50.007813 10.332031 49.90625 10.0625 C 49.804688 9.792969 49.671875 9.609375 49.5 9.4375 C 49.113281 9.046875 40.96875 0.910156 40.53125 0.46875 C 40.3125 0.253906 40.042969 0.0429688 39.625 0 Z M 40.21875 2.96875 C 41.863281 4.613281 45.816406 8.59375 47.15625 9.9375 C 46.886719 9.964844 46.660156 9.910156 46.34375 9.96875 C 45.613281 10.101563 44.789063 10.328125 43.90625 10.625 C 42.140625 11.222656 40.21875 12.121094 38.90625 13.4375 L 38.03125 14.3125 L 35.71875 12 L 36.59375 11.125 C 37.964844 9.753906 38.867188 7.722656 39.46875 5.9375 C 39.769531 5.046875 39.992188 4.210938 40.125 3.53125 C 40.167969 3.320313 40.195313 3.152344 40.21875 2.96875 Z M 34.3125 13.375 L 36.625 15.71875 L 32.5 19.8125 C 31.863281 19.679688 31.183594 19.851563 30.6875 20.34375 C 30.195313 20.835938 29.992188 21.550781 30.125 22.1875 L 28.375 23.9375 C 27.734375 23.800781 27.058594 23.972656 26.5625 24.46875 C 26.070313 24.960938 25.898438 25.644531 26.03125 26.28125 L 24.25 28.03125 C 23.621094 27.910156 22.957031 28.078125 22.46875 28.5625 C 21.976563 29.054688 21.773438 29.769531 21.90625 30.40625 L 20.1875 32.125 L 20.15625 32.125 C 19.527344 32.003906 18.832031 32.203125 18.34375 32.6875 C 17.859375 33.171875 17.691406 33.839844 17.8125 34.46875 C 17.8125 34.480469 17.808594 34.488281 17.8125 34.5 L 14.25 38.0625 L 11.9375 35.75 Z M 31.46875 23.6875 C 31.722656 23.8125 32.003906 23.929688 32.28125 24 C 32.28125 24 32.667969 24.230469 33.15625 24.4375 L 30.65625 26.9375 C 30.449219 26.457031 30.21875 26.0625 30.21875 26.0625 C 30.152344 25.785156 30.03125 25.503906 29.90625 25.25 Z M 27.34375 27.8125 C 27.601563 27.941406 27.871094 28.054688 28.15625 28.125 C 28.15625 28.125 28.578125 28.324219 29.0625 28.53125 L 26.53125 31.0625 C 26.324219 30.578125 26.125 30.15625 26.125 30.15625 C 26.054688 29.871094 25.941406 29.601563 25.8125 29.34375 Z M 23.25 31.90625 C 23.503906 32.03125 23.785156 32.148438 24.0625 32.21875 C 24.0625 32.21875 24.457031 32.449219 24.9375 32.65625 L 22.4375 35.15625 C 22.230469 34.667969 22 34.28125 22 34.28125 C 21.929688 33.996094 21.847656 33.695313 21.71875 33.4375 Z M 10.5625 37.21875 L 12.78125 39.4375 L 3.0625 47.90625 C 2.902344 47.816406 2.699219 47.6875 2.5 47.5 C 2.304688 47.3125 2.179688 47.105469 2.09375 46.96875 Z"/></svg>