<svg xmlns="http://www.w3.org/2000/svg" width="24" height="24" viewBox="0 0 24 24">
  <path d="M13.1710604,3 L13.416472,7.44489595 L12.4075151,7.44489595 L11.8894109,3.89989163 L4.33583073,3.89989163 C4.29946579,5.11792467 4.28129812,6.35865251 4.28129812,7.62213433 L4.28129812,11.6170697 L9.16248454,11.6170697 L9.46245828,8.99920849 L10.2805362,8.99920849 L10.2805362,15.1075118 L9.46245828,15.1075118 L9.16248454,12.4896506 L4.28129812,12.4896506 L4.28129812,16.6891054 C4.28129812,17.9798684 4.29946579,19.2433206 4.33583073,20.4795213 L12.325731,20.4795213 L12.8438352,16.934517 L13.852792,16.934517 L13.634632,21.3795017 L-4.4408921e-15,21.3795017 L-4.4408921e-15,20.6159564 L2.78145901,20.3977964 C2.79962668,19.1433984 2.80874011,17.8981138 2.80874011,16.6619131 L2.80874011,7.71758859 C2.80874011,6.48138787 2.79965627,5.23610332 2.78145901,3.98170534 L-4.4408921e-15,3.76354531 L-4.4408921e-15,3 L13.1710604,3 Z M17.8916671,3.53328336 L17.8916671,11.2777425 C18.6370447,10.4596646 19.0733352,10.0960744 19.6005528,9.82338176 C20.1641058,9.55068912 20.745856,9.40525896 21.2912413,9.40525896 C22.8910618,9.40525896 24,10.4596646 24,11.9867552 C24,13.2593209 23.5636799,14.2046613 22.3820118,15.4772269 C21.6366342,16.2771372 20.4731634,17.2588425 19.3096629,18.0950881 C18.2916222,18.8222685 18.0189296,19.0767638 17.5826095,19.6585141 L17.5826095,19.6585141 L17.0553919,19.6585141 L17.0553919,3.53328336 L17.8916671,3.53328336 Z M20.8367535,10.3687966 C20.5640609,10.3687966 20.2732006,10.4415265 19.964143,10.5505917 C19.0551675,10.9141819 18.5824825,11.3323047 17.8916671,12.4230753 L17.8916671,12.4230753 L17.8916671,18.2586859 C21.3458035,15.2954318 22.4547417,13.7683708 22.4547417,12.0594851 C22.4547417,11.1141447 21.745729,10.3687966 20.8367535,10.3687966 Z"/>
</svg>
