<svg xmlns="http://www.w3.org/2000/svg" width="24" height="24" viewBox="0 0 24 24">
  <path d="M8.66172107,1.17507418 C8.61425491,2.76559023 8.59050445,4.38573349 8.59050445,6.03560831 L8.59050445,11.2522255 L15.0712166,11.2522255 L15.462908,7.83382789 L16.5311573,7.83382789 L16.5311573,15.9525223 L15.462908,15.9525223 L15.0356083,12.3916914 L8.59050445,12.3916914 L8.59050445,17.8219585 C8.59050445,19.495549 8.61425491,21.1275848 8.66172107,22.7181009 L12.5074184,23.0029674 L12.5074184,24 L3,24 L3,23.0029674 L6.63204748,22.7181009 C6.65579794,21.0801187 6.66765579,19.4540291 6.66765579,17.8397626 L6.66765579,6.16023739 C6.66765579,4.54597088 6.65579794,2.91988131 6.63204748,1.28189911 L3,0.997032641 L3,0 L20.2344214,0 L20.5548961,5.8041543 L19.2373887,5.8041543 L18.5608309,1.17507418 L8.66172107,1.17507418 Z"/>
</svg>
