<svg fill="#000000" xmlns="http://www.w3.org/2000/svg"  viewBox="0 0 50 50" width="50px" height="50px"><path d="M 10.21875 0.1875 C 9.65625 0.234375 9.121094 0.699219 8.9375 1.15625 C 8.570313 2.066406 8.804688 2.867188 9.15625 3.71875 C 9.578125 4.738281 10.683594 7.476563 11.375 10.375 C 12.066406 13.273438 12.230469 16.320313 11.34375 17.78125 C 10.328125 19.453125 9.660156 20.441406 9.21875 21.28125 C 6.695313 26.066406 5.050781 30.554688 5 35.8125 C 4.992188 35.875 4.992188 35.9375 5 36 C 5 36.019531 5 36.042969 5 36.0625 C 4.996094 36.105469 4.996094 36.144531 5 36.1875 C 5 36.238281 5.03125 36.292969 5.03125 36.34375 C 5.214844 43.894531 11.40625 50 19 50 C 21.617188 50 24.054688 49.261719 26.15625 48 C 26.199219 48.003906 26.238281 48.003906 26.28125 48 L 37.0625 48 C 37.296875 49.132813 38.300781 50 39.5 50 C 40.867188 50 42 48.867188 42 47.5 L 42 43.5 C 42 42.132813 40.867188 41 39.5 41 C 38.300781 41 37.296875 41.867188 37.0625 43 L 31.09375 43 C 32.296875 40.933594 33 38.554688 33 36 C 33 28.289063 26.710938 22 19 22 C 18.617188 22 18.25 22.03125 17.875 22.0625 C 17.992188 21.9375 18.121094 21.753906 18.21875 21.65625 L 18.25 21.65625 C 19.78125 20.09375 22.835938 18.953125 25.6875 18.3125 C 28.539063 17.671875 31.261719 17.5 31.75 17.5 C 32.664063 17.503906 33.535156 17.292969 34.15625 16.5625 C 34.464844 16.195313 34.648438 15.550781 34.46875 15 C 34.289063 14.449219 33.898438 14.078125 33.40625 13.78125 C 33.40625 13.78125 13.148438 1.519531 11.71875 0.65625 C 11.234375 0.363281 10.78125 0.140625 10.21875 0.1875 Z M 10.90625 2.46875 C 12.640625 3.519531 31.835938 15.164063 32.1875 15.375 C 32.023438 15.4375 31.972656 15.5 31.75 15.5 C 30.863281 15.496094 28.269531 15.699219 25.25 16.375 C 22.230469 17.050781 18.890625 18.15625 16.8125 20.28125 C 16.265625 20.839844 15.441406 21.734375 14.5625 22.84375 C 14.515625 22.890625 14.472656 22.945313 14.4375 23 C 14.402344 23.039063 14.371094 23.082031 14.34375 23.125 C 14.34375 23.136719 14.34375 23.144531 14.34375 23.15625 C 11.902344 26.292969 8.96875 31.089844 8.96875 36 C 8.972656 36.0625 8.984375 36.125 9 36.1875 C 9.007813 36.242188 9.015625 36.292969 9.03125 36.34375 C 9.03125 36.355469 9.03125 36.363281 9.03125 36.375 C 9.085938 37.820313 9.457031 39.179688 10.0625 40.40625 C 10.089844 40.460938 10.128906 40.507813 10.15625 40.5625 C 11.816406 43.777344 15.144531 46 19 46 C 22.894531 46 26.257813 43.730469 27.90625 40.46875 C 28.589844 39.117188 29 37.613281 29 36 C 29 30.496094 24.503906 26 19 26 C 17.144531 26 15.398438 26.515625 13.90625 27.40625 C 14.582031 26.277344 15.296875 25.273438 15.96875 24.375 C 16.9375 24.121094 17.949219 24 19 24 C 25.625 24 31 29.375 31 36 C 31 42.625 25.625 48 19 48 C 12.449219 48 7.117188 42.742188 7 36.21875 C 7.003906 36.167969 7.003906 36.113281 7 36.0625 C 7 36.042969 7 36.019531 7 36 C 7 35.96875 7 35.9375 7 35.90625 C 7.03125 31.015625 8.535156 26.886719 11 22.21875 C 11.351563 21.554688 12.03125 20.511719 13.0625 18.8125 C 14.539063 16.378906 14.050781 12.992188 13.3125 9.90625 C 12.574219 6.820313 11.464844 4.011719 11.03125 2.96875 C 10.917969 2.695313 10.929688 2.671875 10.90625 2.46875 Z M 19 28 C 23.417969 28 27 31.582031 27 36 C 27 37 26.804688 37.960938 26.46875 38.84375 C 26.203125 38.679688 26.019531 38.402344 26 38.0625 C 26 38.042969 26 38.019531 26 38 C 26.007813 37.9375 26.007813 37.875 26 37.8125 L 26 34.15625 C 26.003906 34.105469 26.003906 34.050781 26 34 C 26 33.96875 26 33.9375 26 33.90625 C 25.996094 33.832031 25.988281 33.757813 25.96875 33.6875 C 25.804688 32.191406 24.535156 31 23 31 C 21.453125 31 20.179688 32.207031 20.03125 33.71875 C 20.011719 33.789063 20.003906 33.863281 20 33.9375 C 20 33.957031 20 33.980469 20 34 C 20 34.03125 20 34.0625 20 34.09375 L 20 37.84375 C 20 37.875 20 37.90625 20 37.9375 L 20 38 C 20 38.03125 20 38.0625 20 38.09375 C 19.953125 38.613281 19.53125 39 19 39 C 18.457031 39 18.03125 38.597656 18 38.0625 C 18 38.042969 18 38.019531 18 38 C 18.007813 37.9375 18.007813 37.875 18 37.8125 L 18 34.15625 C 18.003906 34.105469 18.003906 34.050781 18 34 C 18 33.96875 18 33.9375 18 33.90625 C 17.996094 33.832031 17.988281 33.757813 17.96875 33.6875 C 17.804688 32.191406 16.535156 31 15 31 C 13.453125 31 12.179688 32.207031 12.03125 33.71875 C 12.011719 33.789063 12.003906 33.863281 12 33.9375 C 12 33.957031 12 33.980469 12 34 C 12 34.03125 12 34.0625 12 34.09375 L 12 37.8125 C 11.996094 37.855469 11.996094 37.894531 12 37.9375 L 12 38 C 12 38.03125 12 38.0625 12 38.09375 C 11.972656 38.417969 11.789063 38.683594 11.53125 38.84375 C 11.195313 37.960938 11 37 11 36 C 11 35.722656 11.003906 35.457031 11.03125 35.1875 C 11.441406 31.152344 14.855469 28 19 28 Z M 15 33 C 15.542969 33 15.96875 33.402344 16 33.9375 C 16 33.957031 16 33.980469 16 34 C 16 34.03125 16 34.0625 16 34.09375 L 16 37.8125 C 15.996094 37.855469 15.996094 37.894531 16 37.9375 L 16 38 C 16.003906 38.0625 16.015625 38.125 16.03125 38.1875 C 16.035156 38.21875 16.027344 38.25 16.03125 38.28125 C 16.179688 39.792969 17.453125 41 19 41 C 20.546875 41 21.820313 39.792969 21.96875 38.28125 C 21.972656 38.238281 21.996094 38.199219 22 38.15625 C 22.003906 38.105469 22.003906 38.050781 22 38 C 22 37.96875 22 37.9375 22 37.90625 L 22 34.15625 C 22.003906 34.105469 22.003906 34.050781 22 34 C 22 33.96875 22 33.9375 22 33.90625 C 22.046875 33.386719 22.46875 33 23 33 C 23.542969 33 23.96875 33.402344 24 33.9375 C 24 33.957031 24 33.980469 24 34 C 24 34.03125 24 34.0625 24 34.09375 L 24 37.8125 C 23.996094 37.855469 23.996094 37.894531 24 37.9375 L 24 38 C 24.003906 38.0625 24.015625 38.125 24.03125 38.1875 C 24.035156 38.21875 24.027344 38.25 24.03125 38.28125 C 24.128906 39.273438 24.703125 40.121094 25.53125 40.59375 C 24.082031 42.648438 21.707031 44 19 44 C 16.292969 44 13.917969 42.648438 12.46875 40.59375 C 13.296875 40.121094 13.871094 39.273438 13.96875 38.28125 C 13.972656 38.238281 13.996094 38.199219 14 38.15625 C 14.003906 38.105469 14.003906 38.050781 14 38 C 14.007813 37.9375 14.007813 37.875 14 37.8125 L 14 34.15625 C 14.003906 34.105469 14.003906 34.050781 14 34 C 14 33.96875 14 33.9375 14 33.90625 C 14.046875 33.386719 14.46875 33 15 33 Z M 39.5 43 C 39.785156 43 40 43.214844 40 43.5 L 40 47.5 C 40 47.785156 39.785156 48 39.5 48 C 39.214844 48 39 47.785156 39 47.5 L 39 47.1875 C 39.027344 47.054688 39.027344 46.914063 39 46.78125 L 39 44.1875 C 39.027344 44.054688 39.027344 43.914063 39 43.78125 L 39 43.5 C 39 43.214844 39.214844 43 39.5 43 Z M 29.6875 45 L 37 45 L 37 46 L 28.8125 46 C 29.132813 45.6875 29.398438 45.34375 29.6875 45 Z"/></svg>