<svg xmlns="http://www.w3.org/2000/svg" width="24" height="24" viewBox="0 0 24 24">
  <path fill-rule="evenodd" d="M16.610967,12.4939541 C15.0132807,11.8558642 13.5955568,9.05463567 12.8405456,7.10414059 C11.3463457,3.24121082 9.89074343,0.90332963 5.68767692,1.00306859 C0.316372733,1.12961738 0,6.11385242 0,6.11385242 L0,22.7162399 C0,23.4079495 0.562342745,23.969041 1.25470278,23.969041 L22.2523747,23.969041 C22.9444151,23.969041 23.6319804,23.4216736 23.7395423,22.7383421 C24.1782607,19.9481247 24.6759544,13.3649545 19.6517093,13.1136123 C18.3895747,13.0493804 17.3904314,12.8060972 16.610967,12.4939541 L16.610967,12.4939541 Z M22.3679278,22.7700191 L1.01081048,22.7700191 L1.01081048,18.1015178 L2.24281817,18.1015178 L2.24281817,21.5239205 L3.56992148,21.5239205 L3.56992148,18.1015178 L4.65936565,18.1015178 L4.65936565,21.5239205 L5.98646895,21.5239205 L5.98646895,18.1015178 L7.07591312,18.1015178 L7.07591312,21.5239205 L8.40269678,21.5239205 L8.40269678,18.1015178 L9.49254051,18.1015178 L9.49254051,21.5239205 L10.8193242,21.5239205 L10.8193242,18.1015178 L11.9098072,18.1015178 L11.9098072,21.5239205 L13.2366708,21.5239205 L13.2366708,18.1015178 L14.3261949,18.1015178 L14.3261949,21.5239205 L15.6529785,21.5239205 L15.6529785,18.1015178 L16.7431419,18.1015178 L16.7431419,21.5239205 L18.0692063,21.5239205 L18.0692063,18.1015178 L19.1593697,18.1015178 L19.1593697,21.5239205 L20.4867927,21.5239205 L20.4867927,18.1015178 L22.3663296,18.1015178 L22.3663296,22.7700191 L22.3679278,22.7700191 L22.3679278,22.7700191 Z"/>
</svg>
