<svg fill="#000000" xmlns="http://www.w3.org/2000/svg"  viewBox="0 0 50 50" width="50px" height="50px"><path d="M 39.613281 0.0078125 C 39.193439 -0.03588393 38.691719 0.21021198 38.462891 0.52539062 C 38.005707 1.1550967 38.118816 1.7321339 38.300781 2.359375 C 38.207731 2.0355621 38.281407 2.2059001 38.248047 2.3828125 C 38.214687 2.5597254 38.147556 2.828944 38.050781 3.1484375 C 37.857232 3.7874244 37.547469 4.6353956 37.162109 5.5292969 C 36.397987 7.3017985 35.289464 9.2761771 34.318359 10.261719 C 34.032638 10.13199 33.748413 10.021334 33.474609 9.9394531 L 34.707031 8.7070312 A 1.0001 1.0001 0 0 0 33.980469 6.9902344 A 1.0001 1.0001 0 0 0 33.292969 7.2929688 L 16.292969 24.292969 A 1.0001 1.0001 0 1 0 17.707031 25.707031 L 19.5 23.914062 C 19.588105 24.210584 19.69641 24.494387 19.798828 24.787109 L 6.2929688 38.292969 A 1.0001 1.0001 0 0 0 6.2109375 38.386719 L 0.31054688 45.978516 L 0.34765625 45.935547 C 0.08427985 46.237162 -0.015560265 46.652498 0.001953125 46.970703 C 0.019466505 47.288909 0.11426781 47.540524 0.2265625 47.767578 C 0.45115188 48.221685 0.76953336 48.595857 1.1269531 48.935547 C 1.4843729 49.275236 1.8742215 49.568896 2.3105469 49.775391 C 2.5287095 49.878638 2.7582952 49.964471 3.0507812 49.992188 C 3.3432674 50.019908 3.7546148 49.967878 4.0859375 49.691406 L 11.617188 43.787109 A 1.0001 1.0001 0 0 0 11.707031 43.707031 L 14.480469 40.933594 C 14.958653 41.140456 15.531128 41.33515 16.085938 41.5 L 14.292969 43.292969 A 1.0001 1.0001 0 1 0 15.707031 44.707031 L 28.707031 31.707031 A 1.0001 1.0001 0 0 0 27.980469 29.990234 A 1.0001 1.0001 0 0 0 27.292969 30.292969 L 25.5 32.085938 C 25.33515 31.531128 25.140456 30.958653 24.933594 30.480469 L 39.707031 15.707031 C 40.641532 14.771276 42.53948 13.680385 44.298828 12.927734 C 45.178502 12.551409 46.029206 12.248633 46.705078 12.060547 C 47.38095 11.872461 47.978133 11.856088 47.884766 11.839844 C 48.249156 11.903504 48.566559 11.925452 48.908203 11.851562 C 49.249847 11.777672 49.66799 11.542411 49.867188 11.140625 C 50.066384 10.738839 50.007223 10.336703 49.90625 10.066406 C 49.805994 9.7980239 49.661615 9.6032488 49.490234 9.4316406 L 49.486328 9.4277344 C 49.09121 9.0291648 40.97588 0.91630781 40.537109 0.4765625 A 1.0001 1.0001 0 0 0 40.533203 0.47265625 C 40.315164 0.25606321 40.033123 0.05150893 39.613281 0.0078125 z M 40.166016 2.9355469 C 41.78903 4.5588007 45.938484 8.7067148 47.228516 9.9980469 C 46.891446 10.051085 46.574039 10.021762 46.167969 10.134766 C 45.379747 10.354117 44.46292 10.680966 43.511719 11.087891 C 41.609317 11.90174 39.593468 12.990724 38.292969 14.292969 L 23.511719 29.074219 C 22.84588 28.898205 22.108076 29.063799 21.585938 29.585938 C 21.063799 30.108076 20.898205 30.84588 21.074219 31.511719 L 19.511719 33.074219 C 18.84588 32.898205 18.108076 33.063799 17.585938 33.585938 C 17.063799 34.108076 16.898205 34.84588 17.074219 35.511719 L 15.511719 37.074219 C 14.84588 36.898205 14.108076 37.063799 13.585938 37.585938 C 13.063799 38.108076 12.898205 38.84588 13.074219 39.511719 L 11 41.585938 L 8.4140625 39 L 20.814453 26.599609 C 21.597351 27.180819 22.703948 27.124177 23.414062 26.414062 C 24.124177 25.703948 24.180819 24.597351 23.599609 23.814453 L 24.814453 22.599609 C 25.597351 23.180819 26.703948 23.124177 27.414062 22.414062 C 28.124177 21.703948 28.180819 20.597351 27.599609 19.814453 L 29.316406 18.097656 C 29.411037 18.218368 29.505052 18.333177 29.585938 18.414062 C 30.366938 19.195062 31.633063 19.195062 32.414062 18.414062 C 33.195062 17.633063 33.195062 16.366937 32.414062 15.585938 C 32.333177 15.505052 32.218368 15.411037 32.097656 15.316406 L 33.316406 14.097656 C 33.411037 14.218368 33.505052 14.333177 33.585938 14.414062 C 34.366938 15.195062 35.633063 15.195063 36.414062 14.414062 C 37.195062 13.633063 37.195062 12.366938 36.414062 11.585938 C 36.328557 11.500432 36.207842 11.403375 36.078125 11.302734 C 37.267106 9.9514228 38.249376 8.0569712 38.998047 6.3203125 C 39.410812 5.3628387 39.742862 4.4613724 39.964844 3.7285156 C 40.055134 3.4304375 40.113053 3.1796391 40.166016 2.9355469 z M 31.939453 11.474609 C 32.021713 11.749679 32.133179 12.035243 32.263672 12.322266 L 30.322266 14.263672 C 30.035243 14.133179 29.749679 14.021713 29.474609 13.939453 L 31.939453 11.474609 z M 27.939453 15.474609 C 28.021713 15.749679 28.133179 16.035243 28.263672 16.322266 L 25.787109 18.798828 C 25.494387 18.69641 25.210584 18.588105 24.914062 18.5 L 27.939453 15.474609 z M 23.5 19.914062 C 23.588105 20.210584 23.69641 20.494387 23.798828 20.787109 L 21.787109 22.798828 C 21.494387 22.69641 21.210584 22.588105 20.914062 22.5 L 23.5 19.914062 z M 22.480469 32.933594 C 22.958653 33.140456 23.531128 33.33515 24.085938 33.5 L 21.5 36.085938 C 21.33515 35.531128 21.140456 34.958653 20.933594 34.480469 L 22.480469 32.933594 z M 18.480469 36.933594 C 18.958653 37.140456 19.531128 37.33515 20.085938 37.5 L 17.5 40.085938 C 17.33515 39.531128 17.140456 38.958653 16.933594 38.480469 L 18.480469 36.933594 z M 7.09375 40.507812 L 9.4941406 42.908203 L 3.1035156 47.921875 C 2.9435814 47.836115 2.7139111 47.684059 2.5058594 47.486328 C 2.3057469 47.296142 2.164729 47.097124 2.0820312 46.958984 L 7.09375 40.507812 z"/></svg>