<svg fill="#000000" xmlns="http://www.w3.org/2000/svg"  viewBox="0 0 50 50" width="50px" height="50px"><path d="M 48.65625 9.03125 C 48.050781 9 47.699219 9.292969 47.375 9.59375 C 47.050781 9.894531 46.734375 10.277344 46.375 10.8125 C 45.972656 11.410156 44.707031 13.441406 42.8125 15.375 C 40.917969 17.308594 38.46875 19 36 19 L 30 19 L 30 17 C 30.359375 17.003906 30.695313 16.816406 30.878906 16.503906 C 31.058594 16.191406 31.058594 15.808594 30.878906 15.496094 C 30.695313 15.183594 30.359375 14.996094 30 15 L 28 15 C 27.96875 15 27.9375 15 27.90625 15 C 27.355469 15.027344 26.925781 15.496094 26.953125 16.046875 C 26.980469 16.597656 27.449219 17.027344 28 17 L 28 19 L 25 19 L 25 17 C 25.359375 17.003906 25.695313 16.816406 25.878906 16.503906 C 26.058594 16.191406 26.058594 15.808594 25.878906 15.496094 C 25.695313 15.183594 25.359375 14.996094 25 15 L 23 15 C 22.96875 15 22.9375 15 22.90625 15 C 22.875 15 22.84375 15 22.8125 15 C 22.261719 15.050781 21.855469 15.542969 21.90625 16.09375 C 21.957031 16.644531 22.449219 17.050781 23 17 L 23 19 L 20 19 L 20 17 C 20.359375 17.003906 20.695313 16.816406 20.878906 16.503906 C 21.058594 16.191406 21.058594 15.808594 20.878906 15.496094 C 20.695313 15.183594 20.359375 14.996094 20 15 L 18 15 C 17.96875 15 17.9375 15 17.90625 15 C 17.875 15 17.84375 15 17.8125 15 C 17.261719 15.050781 16.855469 15.542969 16.90625 16.09375 C 16.957031 16.644531 17.449219 17.050781 18 17 L 18 19 L 4.9375 19 C 4.703125 17.867188 3.699219 17 2.5 17 C 1.132813 17 0 18.132813 0 19.5 L 0 23.5 C 0 24.867188 1.132813 26 2.5 26 C 3.699219 26 4.703125 25.132813 4.9375 24 L 9.375 24 C 8.644531 25.375 8.21875 27 8.21875 28.84375 C 8.21875 32.808594 9.789063 35.433594 11.65625 36.96875 C 13.523438 38.503906 15.570313 39 16.875 39 L 28.6875 39 C 32.640625 39 35.3125 37.675781 36.90625 35.84375 C 38.5 34.011719 39 31.789063 39 30 L 39 26.5625 C 42.675781 27.84375 45.273438 32.003906 46.375 33.6875 C 46.871094 34.445313 47.234375 34.953125 47.5625 35.3125 C 47.726563 35.492188 47.859375 35.617188 48.0625 35.75 C 48.265625 35.882813 48.589844 36.070313 49.03125 35.96875 C 49.472656 35.867188 49.746094 35.476563 49.84375 35.25 C 49.941406 35.023438 49.953125 34.867188 49.96875 34.71875 C 49.996094 34.421875 50 34.183594 50 34 L 50 11 C 50 10.648438 49.980469 10.335938 49.84375 9.96875 C 49.773438 9.785156 49.667969 9.566406 49.46875 9.375 C 49.269531 9.183594 48.960938 9.046875 48.65625 9.03125 Z M 48 11.96875 C 48 14.40625 48 29.617188 48 32.53125 C 46.863281 30.773438 43.273438 24 37 24 L 30 24 L 30 23.46875 C 30.011719 23.179688 29.894531 22.902344 29.6875 22.707031 C 29.476563 22.507813 29.191406 22.410156 28.90625 22.4375 C 28.863281 22.445313 28.820313 22.457031 28.78125 22.46875 C 28.316406 22.574219 27.988281 22.992188 28 23.46875 L 28 24 L 25 24 L 25 23.46875 C 25.011719 23.179688 24.894531 22.902344 24.6875 22.707031 C 24.476563 22.507813 24.191406 22.410156 23.90625 22.4375 C 23.863281 22.445313 23.820313 22.457031 23.78125 22.46875 C 23.316406 22.574219 22.988281 22.992188 23 23.46875 L 23 24 L 20 24 L 20 23.46875 C 20.011719 23.179688 19.894531 22.902344 19.6875 22.707031 C 19.476563 22.507813 19.191406 22.410156 18.90625 22.4375 C 18.863281 22.445313 18.820313 22.457031 18.78125 22.46875 C 18.316406 22.574219 17.988281 22.992188 18 23.46875 L 18 24 C 17.519531 24 16.078125 23.988281 14.6875 24.6875 C 13.296875 25.386719 12 26.964844 12 29.5 C 12 32.027344 13.273438 33.613281 14.65625 34.3125 C 16.039063 35.011719 17.464844 35 18 35 C 17.996094 35.359375 18.183594 35.695313 18.496094 35.878906 C 18.808594 36.058594 19.191406 36.058594 19.503906 35.878906 C 19.816406 35.695313 20.003906 35.359375 20 35 L 23 35 C 22.996094 35.359375 23.183594 35.695313 23.496094 35.878906 C 23.808594 36.058594 24.191406 36.058594 24.503906 35.878906 C 24.816406 35.695313 25.003906 35.359375 25 35 L 28 35 C 27.996094 35.359375 28.183594 35.695313 28.496094 35.878906 C 28.808594 36.058594 29.191406 36.058594 29.503906 35.878906 C 29.816406 35.695313 30.003906 35.359375 30 35 L 30 34.84375 C 30.78125 34.710938 31.46875 34.5 32.0625 34.1875 C 33.117188 33.632813 33.851563 32.753906 34.28125 31.78125 C 35.03125 30.082031 35.015625 28.085938 35 26 L 37 26 L 37 30 C 37 31.40625 36.597656 33.160156 35.40625 34.53125 C 34.214844 35.902344 32.210938 37 28.6875 37 L 16.875 37 C 16.132813 37 14.382813 36.625 12.9375 35.4375 C 11.492188 34.25 10.21875 32.308594 10.21875 28.84375 C 10.21875 23.699219 13.753906 21 18 21 L 36 21 C 39.339844 21 42.144531 18.898438 44.21875 16.78125 C 46.277344 14.679688 47.683594 12.441406 48 11.96875 Z M 2.5 19 C 2.785156 19 3 19.214844 3 19.5 L 3 19.6875 C 2.941406 19.882813 2.941406 20.085938 3 20.28125 L 3 22.6875 C 2.941406 22.882813 2.941406 23.085938 3 23.28125 L 3 23.5 C 3 23.785156 2.785156 24 2.5 24 C 2.214844 24 2 23.785156 2 23.5 L 2 19.5 C 2 19.214844 2.214844 19 2.5 19 Z M 5 21 L 11.90625 21 C 11.519531 21.296875 11.183594 21.644531 10.84375 22 L 5 22 Z M 18 26 L 18 33 C 17.480469 33 16.414063 32.960938 15.5625 32.53125 C 14.710938 32.101563 14 31.4375 14 29.5 C 14 27.574219 14.71875 26.910156 15.59375 26.46875 C 16.46875 26.027344 17.554688 26 18 26 Z M 20 26 L 23 26 L 23 33 L 20 33 Z M 25 26 L 28 26 L 28 33 L 25 33 Z M 30 26 L 32.96875 26 C 32.964844 28.054688 32.957031 29.894531 32.46875 31 C 32.1875 31.636719 31.789063 32.058594 31.125 32.40625 C 30.824219 32.566406 30.449219 32.710938 30 32.8125 Z"/></svg>