<?xml version="1.0" standalone="no"?>
<!DOCTYPE svg PUBLIC "-//W3C//DTD SVG 20010904//EN"
 "http://www.w3.org/TR/2001/REC-SVG-20010904/DTD/svg10.dtd">
<svg version="1.0" xmlns="http://www.w3.org/2000/svg"
 width="700.000000pt" height="700.000000pt" viewBox="0 0 700.000000 700.000000"
 preserveAspectRatio="xMidYMid meet">
<metadata>
Created by potrace 1.14, written by Peter Selinger 2001-2017
</metadata>
<g transform="translate(0.000000,700.000000) scale(0.100000,-0.100000)"
fill="#000000" stroke="none">
<path d="M6015 6549 c-22 -4 -56 -10 -75 -14 -20 -3 -47 -8 -60 -10 -14 -3
-38 -8 -55 -10 -32 -6 -335 -62 -371 -69 -12 -2 -39 -7 -60 -10 -22 -4 -61
-11 -89 -16 -27 -6 -63 -12 -80 -15 -16 -2 -41 -7 -55 -10 -14 -3 -41 -8 -60
-11 -41 -6 -175 -31 -240 -44 -25 -5 -61 -12 -80 -14 -19 -3 -82 -14 -140 -25
-58 -11 -121 -23 -140 -26 -19 -3 -73 -13 -120 -21 -47 -9 -96 -18 -110 -20
-59 -10 -249 -46 -290 -54 -25 -5 -61 -12 -80 -14 -19 -3 -44 -7 -55 -10 -11
-2 -40 -7 -65 -12 -25 -4 -47 -8 -50 -9 -8 -2 -92 -17 -120 -21 -22 -4 -272
-50 -319 -59 -10 -2 -34 -6 -52 -9 -19 -3 -81 -14 -139 -25 -58 -11 -121 -23
-140 -26 -19 -3 -73 -13 -120 -21 -47 -9 -96 -18 -110 -20 -14 -3 -47 -9 -75
-14 -27 -6 -63 -12 -80 -15 -16 -2 -55 -9 -85 -14 -30 -6 -66 -13 -80 -16 -14
-3 -36 -7 -50 -10 l-25 -5 1 -1983 c0 -1090 -1 -1985 -3 -1989 -2 -3 -17 -3
-33 2 -17 5 -54 11 -83 15 -28 3 -65 8 -80 11 -40 8 -220 8 -287 -1 -422 -51
-756 -304 -845 -640 -23 -89 -29 -131 -28 -226 1 -172 53 -301 165 -413 97
-96 239 -172 353 -190 21 -4 40 -8 44 -10 11 -7 155 -19 221 -18 107 1 186 10
334 38 14 2 64 17 113 33 299 98 527 275 682 530 28 47 51 89 51 94 0 5 6 23
14 40 19 43 45 126 53 168 3 19 7 763 8 1654 2 891 3 1628 4 1638 1 10 9 17
21 17 12 0 53 6 93 14 40 8 86 17 102 20 27 4 74 13 170 31 17 3 41 8 55 10
14 2 99 17 190 34 91 17 176 32 190 35 14 2 63 11 110 20 47 8 96 17 110 20
14 2 63 11 110 20 47 8 96 17 110 20 14 2 113 20 220 40 107 19 209 38 225 40
73 13 172 32 215 41 14 3 43 8 65 11 22 3 99 17 170 30 112 21 149 28 210 37
7 1 11 -421 13 -1246 2 -1245 2 -1248 -18 -1243 -55 16 -80 21 -161 32 -53 7
-262 7 -304 0 -16 -3 -50 -8 -74 -11 -74 -11 -212 -55 -299 -95 -241 -113
-420 -315 -477 -539 -72 -283 -2 -533 192 -686 52 -41 81 -57 178 -100 39 -18
129 -43 180 -50 22 -4 51 -8 65 -11 35 -6 214 -5 280 1 82 8 205 33 299 61
376 113 700 426 791 764 7 25 15 54 18 65 4 11 8 1038 9 2283 3 2162 3 2262
-14 2261 -10 -1 -36 -5 -58 -10z"/>
</g>
</svg>
