<?xml version="1.0" encoding="UTF-8" standalone="no"?>
<svg width="500px" height="132px" viewBox="0 0 500 132" version="1.1" xmlns="http://www.w3.org/2000/svg" xmlns:xlink="http://www.w3.org/1999/xlink" xmlns:sketch="http://www.bohemiancoding.com/sketch/ns">
    <!-- Generator: Sketch 3.3.3 (12072) - http://www.bohemiancoding.com/sketch -->
    <title>transpose-logo</title>
    <desc>Created with Sketch.</desc>
    <defs></defs>
    <g id="Page-1" stroke="none" stroke-width="1" fill="none" fill-rule="evenodd" sketch:type="MSPage">
        <g id="transpose-logo" sketch:type="MSArtboardGroup" fill="#4A4A4A">
            <g sketch:type="MSLayerGroup" transform="translate(0.000000, 2.000000)" id="Group">
                <g sketch:type="MSShapeGroup">
                    <path d="M65.1799569,54.2339035 C65.5527877,55.1659804 64.9935416,55.9116419 64.4342954,56.6573034 C63.3158031,57.9622111 62.1973109,59.4535341 60.8924032,60.7584418 C56.7912649,65.791657 52.8765419,71.2002921 47.6569113,75.3014305 C43.9286037,78.2840765 38.8953884,80.7074765 34.0485886,79.2161534 C30.320281,78.2840765 28.4561272,75.1150151 27.896881,71.5705338 C27.3376349,67.8422262 27.7104657,64.1139186 28.4561272,60.5720264 C29.5746195,54.979565 31.2523579,49.3871036 33.1165117,43.9784685 C30.6931117,47.5203607 28.0832964,51.0622529 25.4734811,54.6041451 C24.914235,55.3498066 23.9821581,56.4682989 23.0500812,56.8411297 L20.2538505,60.3830219 L7.76402006,75.1098369 L4.40854323,79.2109752 C3.29005096,80.5158829 1.0530664,80.1430521 0.680235643,78.2788983 C0.493820263,77.3468214 0.866651022,76.7875753 1.42589716,76.0419138 C7.95043544,68.5852986 14.2885583,60.9396789 20.6292703,53.4830637 L21.934178,52.3645715 L22.3070088,51.9917407 C27.340224,45.2807871 32.0031976,38.5698334 36.1043359,31.2970445 L27.7156439,31.2970445 C26.0379055,31.2970445 24.9194132,29.8057215 25.6650747,28.3143984 C26.2243208,27.0094908 27.5292285,27.1959061 28.6477208,27.1959061 L38.5277359,27.1959061 L40.3918897,23.2811832 C43.9337819,16.3838141 46.916428,9.11102523 49.899074,1.84082543 C50.6447355,-0.023328369 53.6273816,0.163087011 53.813797,2.40007156 C54.0002124,3.51856384 53.0681355,5.00988688 52.6953047,5.94196377 L49.899074,13.0257482 C47.8485049,17.6861327 45.9843511,22.3491063 44.1201973,27.1959061 L56.9828585,27.1959061 C58.4741815,27.1959061 61.2704122,26.63666 62.0160737,28.3143984 C62.7617352,29.8057215 61.4568276,31.2970445 59.9655045,31.2970445 L42.4398697,31.2970445 C42.067039,31.2970445 41.1349621,34.4661059 40.9485467,34.8389367 L39.4572237,38.7536597 L36.4745776,46.9559364 C34.7968392,51.9891516 33.3055162,57.0223669 32.3734393,62.2419975 C31.8141931,65.5974743 31.0685316,69.6986127 32.5598546,72.8676741 C34.6104238,77.714474 41.1349621,74.9182433 44.1176082,72.6812587 C49.1508234,69.1393665 52.879131,64.1061513 56.793854,59.2593514 L61.6406538,53.4804746 C62.5727307,52.3697497 64.6232999,52.7425804 65.1799569,54.2339035 L65.1799569,54.2339035 Z" id="Shape"></path>
                    <path d="M112.902294,55.7252265 L111.03814,57.9622111 L104.513602,65.235 C100.97171,69.3361383 97.2408131,73.4372767 93.1396748,76.9791689 C90.5298595,79.2161534 87.5472134,81.6395534 84.1917365,82.0123841 C78.9695168,82.5716303 76.7351214,77.1655842 77.2917784,72.8780305 C78.2238553,66.9127384 81.9521629,61.5041033 85.1212243,56.4734771 C86.7989628,53.6772464 88.4767012,51.0674311 90.1544396,48.0821959 C91.0865165,46.2180422 92.7642549,43.4218115 92.5778395,41.1848269 C92.3914241,39.8799193 88.1012813,40.4391654 87.1717935,40.4391654 C84.7483936,40.25275 82.3249937,39.6935039 81.3929168,37.0836886 C77.2917784,42.3033192 72.8178093,47.1501191 68.5276665,51.9969189 L64.9857743,55.7252265 C64.0536974,56.6573034 63.1216205,57.4029649 61.8167128,56.6573034 C58.6476514,54.979565 63.1216205,51.4376728 64.4265281,50.1327651 C68.1548357,46.2180422 71.6967279,42.1143147 75.2386201,38.0131764 L81.2039123,30.7429766 L84.000143,27.5739151 C85.3050506,25.8961767 87.9148659,27.014669 87.7284506,29.0652381 C87.5420352,30.3701458 86.6099583,31.4886381 86.0507121,32.7935457 C85.8642968,33.5392072 85.491466,34.0984534 85.491466,34.8441149 C85.3050506,35.7761918 85.3050506,35.9626072 86.4235429,36.1490226 C88.8469428,36.3354379 91.2703428,35.7761918 93.5073273,36.7082687 C96.1171426,37.6403456 97.0492195,40.2501609 96.6763888,42.6735608 C96.1171426,45.2833762 94.9986504,47.8931915 93.6937427,50.130176 C92.2024197,53.1128221 90.3382659,55.7226374 88.6605275,58.5188681 C86.0507121,62.9928372 82.6952353,67.6532217 81.576743,72.8728523 C81.3903277,74.3641754 81.2039123,77.160406 83.0680661,77.7196522 C84.1865583,78.0924829 85.8642968,77.160406 86.7963737,76.6011599 C90.7110966,74.17776 93.8801581,70.6358678 97.0492195,67.2803909 L109.911881,52.9264067 C111.783802,50.8758375 114.766448,53.6746573 112.902294,55.7252265 L112.902294,55.7252265 Z" id="Shape"></path>
                    <path d="M173.487292,55.1659804 C173.300877,56.0980573 172.555216,56.6573034 172.182385,57.2165495 C170.318231,59.2671187 168.454077,61.3176879 166.776339,63.3682571 C162.6752,68.0286416 158.574062,73.0618568 153.540847,76.9765798 C149.998955,79.9592258 145.152155,82.5690412 140.489181,80.3320566 C135.269551,78.095072 135.455966,72.1297799 136.201627,67.2803909 C132.659735,71.75436 128.372181,76.2283291 123.338966,78.8381445 C119.051413,80.8887136 113.272536,82.0072059 109.168808,79.2109752 C105.813331,76.9739907 104.508424,72.8728523 104.508424,68.9581293 C104.694839,64.2977449 106.558993,59.6347713 108.795978,55.5336329 C111.594797,49.9411715 115.695936,45.0943717 120.35632,40.8068179 C124.084628,37.2649257 128.372181,34.0958643 133.032566,31.8588797 C138.811443,29.062649 145.335981,27.571326 151.676693,28.3169875 C152.795185,28.5034029 153.913678,28.6898183 155.03217,29.062649 C158.014816,29.9947259 155.405001,34.0958643 154.659339,35.7736027 C152.422355,40.8068179 149.998955,45.4697915 147.389139,50.3165914 C146.643478,51.8079144 145.711401,53.2992375 144.779324,54.7905605 C144.033662,56.2818835 143.288001,57.5867912 142.728755,59.2671187 C141.796678,62.0633494 140.864601,64.8595801 140.305355,67.8422262 C139.932524,70.0792107 139.559693,72.8754414 140.678186,75.112426 C141.423847,76.603749 143.474416,77.1629951 145.152155,76.7901644 C147.202724,76.4173336 148.880462,75.2988414 150.371785,74.1803491 C152.422355,72.5026107 154.472924,70.6384569 156.150662,68.7743031 C160.997462,63.9275032 165.471431,58.5214572 169.9454,53.3018266 C171.436723,51.8105035 173.862712,53.3018266 173.487292,55.1659804 L173.487292,55.1659804 Z M129.117843,69.1471338 C132.659735,65.6052416 135.642381,61.3176879 138.438612,57.0301342 C139.370689,55.9116419 139.929935,54.6067342 140.489181,53.3018266 L142.16692,49.7599344 C143.098996,47.3365344 144.217489,45.0995499 145.335981,42.8599762 C147.200135,39.318084 149.064289,35.9626072 151.114858,32.6071303 C145.335981,31.8614688 139.557104,33.3527919 134.5213,35.7761918 C129.6745,38.2021808 125.573362,41.5550686 121.845054,45.2833762 C117.371085,49.5709299 113.456362,54.6067342 111.032962,60.1991956 C109.541639,63.7410878 108.236731,68.2150569 109.168808,72.1297799 C109.541639,73.8075183 110.473716,75.4852567 112.151454,76.2309182 C114.202024,76.9765798 116.625423,76.603749 118.675993,76.0445029 C122.77972,74.9285997 126.135197,72.1297799 129.117843,69.1471338 L129.117843,69.1471338 Z" id="Shape"></path>
                    <path d="M253.086659,53.8610727 C253.273075,54.979565 252.527413,55.5388111 252.154583,56.2844726 C251.595336,57.4029649 250.476844,58.7078726 249.731183,59.6399495 C246.934952,63.1818417 243.952306,67.0965647 240.780655,70.2656261 C237.238763,73.8075183 233.137625,77.7222413 228.290825,79.3999797 C224.376102,80.7048874 219.156471,80.518472 218.037979,75.8580875 C217.478733,73.8075183 217.851564,71.7569491 218.41081,69.70638 C218.970056,66.9101493 220.088548,64.300334 221.20704,61.6905186 C223.444025,56.2844726 225.867425,50.8758375 227.917994,45.4697915 C228.850071,43.232807 229.595733,40.9958224 229.968563,38.7588379 C230.154979,37.4539302 230.527809,35.7761918 229.595733,34.6576995 C228.47724,33.5392072 226.240256,33.912038 224.935348,34.2848688 C223.444025,34.4712841 221.952702,35.2169457 220.647794,35.9626072 C213.56401,39.6909148 208.155375,46.4018684 203.49499,52.7399913 C198.834606,59.0781142 194.544463,65.791657 190.62974,72.689026 C189.511248,74.7395952 188.392755,77.1655842 186.901432,79.0271489 C186.342186,79.9592258 184.850863,80.7048874 183.732371,80.1456412 C182.800294,79.7728105 182.241048,78.6543182 182.800294,77.5358259 L184.291617,74.1803491 C187.460679,67.8422262 190.62974,61.5041033 193.425971,54.9769759 C194.917294,51.2486683 196.595032,47.3339453 197.527109,43.2302179 C197.89994,41.7388948 198.086355,40.2475718 198.086355,38.5698334 C198.272771,37.4513411 198.086355,35.7710136 196.967863,35.0279412 C195.849371,34.468695 194.358048,35.0279412 193.239555,35.5871873 C191.561817,36.7056796 189.884079,38.0105873 188.392755,39.3154949 C184.291617,43.0438025 180.376894,47.3339453 176.835002,51.61891 L174.038771,55.3472175 C173.29311,56.2792944 172.361033,57.2113713 171.242541,56.6521252 C169.937633,56.2792944 169.378387,54.7879714 170.124048,53.8558945 C170.310464,53.2966484 170.683294,52.9238176 170.86971,52.5509869 L176.462171,45.4672024 C179.071987,42.4845564 181.868217,39.5019103 184.850863,36.892095 C187.460679,34.468695 190.256909,32.2317105 193.612386,31.1132182 C197.154278,29.9947259 200.882586,31.486049 202.001078,35.4007719 C202.560324,37.6377565 202.373909,40.0611564 202.001078,42.298141 C201.441832,45.2807871 200.509755,48.2634331 199.391263,51.2460792 C201.628247,48.2634331 203.867821,45.4672024 206.102217,42.8573871 C209.830524,38.7562488 213.931662,34.6551104 218.967467,32.0452951 C222.509359,30.1811413 228.288236,28.3169875 232.016543,31.2996336 C235.744851,34.2822797 234.067113,40.2501609 232.94862,43.9758794 C231.084466,49.9411715 228.288236,55.3498066 225.864836,61.1286834 C224.932759,63.5520833 223.814267,65.9754833 223.068605,68.5852986 C222.509359,70.263037 221.763698,72.3136062 221.950113,74.17776 C222.322944,77.9060676 228.288236,74.9234215 229.965974,73.9913446 C233.880697,71.5653556 237.049759,68.2124678 240.21882,64.856991 C243.201466,61.5015142 246.556943,56.6547143 249.353174,53.110233 C250.476844,51.8105035 252.713829,52.1833343 253.086659,53.8610727 L253.086659,53.8610727 Z" id="Shape"></path>
                    <path d="M297.637346,56.0980573 C296.146023,57.9622111 294.841115,59.8263649 293.160788,61.6905186 C289.805311,65.6052416 286.077003,69.3335492 281.78945,72.5026107 C273.587173,78.8407336 262.772492,83.6875334 252.146815,81.2641335 C246.927185,80.1456412 242.2668,77.3494105 238.352077,73.6211029 C237.42,72.8754414 235.928677,71.7569491 235.742262,70.4520415 C235.742262,69.3335492 236.487923,68.2150569 237.606416,68.2150569 C239.097739,68.0286416 240.029816,69.5199646 240.961892,70.4520415 C241.893969,71.3841184 243.012462,72.3161953 244.130954,73.0618568 C246.181523,74.5531798 248.604923,75.8580875 251.030912,76.603749 C252.33582,77.1629951 253.640727,77.3494105 254.945635,77.5358259 C256.064127,77.7222413 257.369035,77.9086567 258.487527,77.7222413 C261.843004,76.9765798 264.079989,74.3667645 265.198481,71.197703 C266.689804,67.0965647 266.876219,62.4361802 266.876219,57.959622 C266.876219,51.9943298 266.130558,45.8426223 266.503389,39.6883257 C262.775081,44.1648839 259.046773,48.4498485 255.13205,52.7399913 L251.776574,56.2818835 C251.217327,57.0275451 249.91242,57.2139604 249.166758,56.4682989 C246.556943,54.6041451 250.285251,51.8079144 251.590158,50.5030068 C257.369035,44.1648839 262.775081,37.4513411 268.367542,30.9268028 L270.604527,28.3169875 C272.282265,26.4528337 275.078496,28.5034029 274.146419,30.5539721 C273.587173,31.8588797 272.282265,32.4181259 271.909435,33.7230335 C270.977358,35.9600181 270.790942,38.5724225 270.604527,41.1796487 C270.418112,47.3313562 271.163773,53.6720682 270.977358,59.8237758 C270.977358,65.0434064 270.604527,71.0086985 267.808296,75.6716721 C273.773588,73.4346876 278.993219,69.70638 283.656193,65.4188262 C287.570916,61.876934 291.112808,57.9622111 294.095454,53.6746573 C295.770603,51.4376728 299.12608,53.8610727 297.637346,56.0980573 L297.637346,56.0980573 Z" id="Shape"></path>
                    <path d="M360.272914,55.9116419 C359.527252,57.2165495 358.40876,58.1486264 357.476683,59.2671187 C356.544606,60.1991956 355.612529,61.1312725 354.866868,62.2497648 C351.884221,65.4188262 348.528745,68.4014723 345.170679,71.0112876 C337.154817,76.9765798 327.645044,81.4505489 317.578613,82.3852149 C314.036721,82.7580456 310.681244,82.5716303 307.325768,82.0123841 L304.343122,81.453138 C301.733306,80.5210611 302.851798,76.6063381 305.461614,77.3519996 C306.766521,77.7248304 307.887603,77.9112458 309.189921,77.9112458 C310.308414,77.9112458 311.240491,77.7248304 312.172567,77.538415 C314.223137,77.1655842 316.273706,76.4199227 318.13786,75.4878458 C321.866167,73.623692 325.221644,70.8274613 328.206879,67.6583999 C333.612925,61.6931078 337.900479,53.8610727 339.951048,45.8452114 C340.510294,44.3538884 340.883125,42.6761499 341.06954,40.9984115 C341.255956,38.761427 341.628787,36.1490226 340.69671,34.0984534 C339.764633,32.0478842 336.781987,33.1663765 335.290664,33.912038 C332.121602,35.2169457 329.138956,37.2675148 326.526552,39.5044994 C322.984659,42.4871455 319.629183,45.8426223 316.460121,49.3845145 C312.918229,53.4856529 309.749168,57.959622 306.766521,62.6200064 C305.275198,64.856991 303.783875,67.4668063 302.665383,69.8902062 C302.292552,70.6358678 301.733306,71.1951139 301.546891,71.9407754 L300.614814,73.9913446 L298.937076,78.0924829 C294.276691,89.2774057 289.429891,100.278502 284.583091,111.463425 C282.718937,115.937394 280.854784,120.411363 278.804215,124.698917 C278.431384,125.817409 277.872138,126.935901 276.56723,126.935901 C275.448738,126.749486 274.516661,125.817409 274.516661,124.698917 C274.516661,123.76684 275.075907,122.834763 275.448738,122.089102 L276.56723,119.663113 L287.192907,95.0562825 L309.003506,43.2276288 C305.461614,47.1423517 301.919722,51.0570747 298.564245,55.1582131 C297.632168,56.2767053 296.140845,57.2087822 294.835937,55.7174592 C293.90386,54.7853823 294.276691,53.66689 295.022353,52.7348131 L305.091372,41.1770596 C308.260434,37.8215828 311.24308,34.2796906 314.225726,30.7377983 C315.717049,29.0600599 318.699695,30.9242137 317.767618,32.9747829 C317.394787,33.9068598 317.021956,34.6525213 316.835541,35.4007719 C314.784972,40.2475718 312.734403,44.9079563 310.870249,49.7547562 C316.08988,43.2276288 322.055172,36.8895059 329.141545,32.4155368 C332.683437,30.1785522 338.275899,27.1959061 342.193211,29.8057215 C345.175857,31.6698752 345.548688,35.957429 345.362272,39.1264904 C345.175857,43.7868749 343.870949,48.6336748 342.193211,52.9238176 C338.464903,62.431002 332.313196,71.3789402 323.735499,77.160406 C337.346411,73.6185138 347.972088,64.1087404 356.920026,53.4830637 C358.40876,51.6240882 361.577821,53.8610727 360.272914,55.9116419 L360.272914,55.9116419 Z" id="Shape"></path>
                    <path d="M411.907385,58.7078726 L406.874169,63.7410878 C404.077939,66.1644878 400.908877,68.5878877 397.366985,69.70638 C395.316416,70.2656261 393.079431,70.6384569 390.842447,70.2656261 C389.723954,70.0792107 388.605462,69.8927953 387.48697,69.5199646 C386.927724,69.3335492 386.368478,69.1471338 385.809231,68.7743031 L384.131493,70.4520415 C380.21677,74.5531798 375.36997,78.2814874 369.777509,79.5863951 C364.557878,80.7048874 359.151832,79.0271489 356.539428,74.1803491 C354.488859,70.2656261 354.488859,65.4188262 355.23452,61.1286834 C356.912259,51.9943298 361.945474,43.4192224 368.286186,36.7056796 C370.15034,34.8415258 372.200909,32.977372 374.251478,31.2996336 C375.183555,30.7403875 376.488462,29.4354798 377.606955,29.4354798 C378.911862,29.6218952 379.657524,30.5539721 379.657524,31.6724643 C379.471109,33.1637874 378.166201,33.7230335 377.231535,34.468695 C376.113043,35.2143566 375.180966,35.9600181 374.248889,36.892095 C372.19832,38.5698334 370.334166,40.4339872 368.656427,42.4845564 C365.673781,46.3992793 363.063966,50.5030068 361.386228,55.1608022 C359.894905,58.8891098 358.776412,62.8038327 358.962828,66.9075602 C359.149243,71.75436 361.945474,76.4147445 367.35152,75.669083 C373.130397,74.9234215 378.350027,70.6358678 382.078335,66.5347294 C375.551207,60.5694373 376.672289,49.5683408 379.095689,41.7388948 C380.400596,37.6377565 382.451166,32.7883675 386.179473,30.1785522 C390.094196,27.3823215 395.127411,27.9415677 397.364396,32.2291214 C400.160627,37.2623366 399.414965,44.1597057 397.550811,49.3819254 C395.686657,55.1608022 392.328592,60.7532635 388.600284,65.413648 C392.515007,66.9049711 396.42973,65.9728942 399.974211,63.7359096 C402.211196,62.2445866 404.44818,60.3804328 406.312334,58.3298636 L410.227057,54.2287253 C410.975308,53.110233 412.277626,52.1781561 413.582534,53.2966484 C415.638281,55.1659804 413.028466,57.4029649 411.907385,58.7078726 L411.907385,58.7078726 Z M389.91037,55.9116419 C393.079431,50.6920113 395.502831,44.7267191 394.943585,38.3860071 C394.75717,36.5218533 394.384339,33.912038 392.520185,32.7935457 C390.842447,32.0478842 388.791878,33.3527919 387.673385,34.4712841 C384.131493,38.1995917 382.453755,43.7946422 381.708093,48.6414421 C380.962432,53.488242 381.148847,59.6399495 384.877155,63.3682571 C386.741308,60.9448571 388.419047,58.5214572 389.91037,55.9116419 L389.91037,55.9116419 Z" id="Shape"></path>
                    <path d="M459.443306,56.0980573 C457.951983,57.9622111 456.647076,59.8263649 454.966748,61.6905186 C451.611271,65.6052416 447.882964,69.3335492 443.592821,72.5026107 C435.390544,78.8407336 424.578452,83.6875334 413.952776,81.2641335 C408.730556,80.1456412 404.07276,77.3494105 400.155448,73.6211029 C399.223371,72.8754414 397.732048,71.7569491 397.545633,70.4520415 C397.545633,69.3335492 398.291295,68.2150569 399.409787,68.2150569 C400.90111,68.0286416 401.833187,69.5199646 402.765264,70.4520415 C403.697341,71.3841184 404.815833,72.3161953 405.934325,73.0618568 C407.984894,74.5531798 410.408294,75.8580875 412.831694,76.603749 C414.136602,77.1629951 415.444099,77.3494105 416.749006,77.5358259 C417.867499,77.7222413 419.172406,77.9086567 420.290898,77.7222413 C423.646375,76.9765798 425.88336,74.3667645 427.001852,71.197703 C428.493175,67.0965647 428.679591,62.4361802 428.679591,57.959622 C428.679591,51.9943298 427.933929,45.8426223 428.304171,39.6883257 C424.578452,44.1648839 420.847555,48.4498485 416.930243,52.7399913 L413.574767,56.2818835 C413.01552,57.0275451 411.710613,57.2139604 410.964951,56.4682989 C408.355136,54.6041451 412.083444,51.8079144 413.388351,50.5030068 C419.167228,44.1648839 424.575863,37.4513411 430.168324,30.9268028 L432.40272,28.3169875 C434.080458,26.4528337 436.879278,28.5034029 435.944612,30.5539721 C435.385366,31.8588797 434.080458,32.4181259 433.710217,33.7230335 C432.77814,35.9600181 432.589135,38.5724225 432.40272,41.1796487 C432.218894,47.3313562 432.964555,53.6720682 432.77814,59.8237758 C432.77814,65.0434064 432.40272,71.0086985 429.606489,75.6716721 C435.57437,73.4346876 440.791412,69.70638 445.454386,65.4188262 C449.369109,61.876934 452.911001,57.9622111 455.893647,53.6746573 C457.579153,51.4376728 460.934629,53.8610727 459.443306,56.0980573 L459.443306,56.0980573 Z" id="Shape"></path>
                    <path d="M497.842285,57.7757957 L493.365727,62.8090109 C490.755912,65.6078307 488.146097,68.2150569 485.163451,70.8274613 C479.195569,75.8606766 471.366123,81.0803072 463.163847,80.1482303 C459.249124,79.5889842 455.891058,77.538415 454.215908,73.8101074 C452.349166,69.5225537 452.911001,64.4893384 453.840489,60.0127802 C456.077473,50.6920113 461.299693,41.5576577 468.383477,35.0331194 C471.363534,32.2368887 474.908016,29.8134888 478.822739,29.0678272 C483.110292,28.3221657 488.146097,29.440658 489.634831,33.9146271 C491.501573,40.6255808 485.160861,46.4044575 480.314062,49.7625235 C476.026508,52.3723388 471.54995,54.2364926 466.889565,55.7278156 C465.398242,56.2870617 463.906919,56.6598925 462.413007,57.0327233 L460.176022,57.5919694 C459.803192,57.5919694 459.430361,57.7783848 459.05753,57.7783848 C458.871115,57.7783848 458.871115,58.5240463 458.68211,58.5240463 C457.752622,61.5066924 457.193376,64.6757538 457.193376,67.8448153 C457.377203,69.8953844 457.752622,72.3187844 459.243945,73.9965228 C460.548853,75.1150151 462.224002,75.8606766 463.90433,75.8606766 C467.446222,76.2335074 470.988114,74.9285997 474.157176,73.4372767 C478.44473,71.0138767 482.362042,67.8448153 486.08776,64.3029231 C488.324745,62.2523539 490.375314,59.828954 492.425883,57.5919694 L495.783949,53.4908311 C496.52961,52.5587542 497.834518,52.3723388 498.764006,53.1180003 C500.452101,54.6067342 498.771773,56.470888 497.842285,57.7757957 L497.842285,57.7757957 Z M469.504559,39.6909148 C465.962666,43.6056377 463.166436,48.0796068 460.929451,52.9289958 C468.572482,51.064842 477.150178,48.0796068 482.556224,42.3033192 C484.047547,40.8119961 485.352455,38.9478424 485.727875,36.8972732 C486.100706,33.5417963 482.931644,32.7961348 480.135413,33.1689656 C476.029097,33.5392072 472.300789,36.7082687 469.504559,39.6909148 L469.504559,39.6909148 Z" id="Shape"></path>
                </g>
            </g>
        </g>
    </g>
</svg>